<svg width="22" height="20" viewBox="0 0 22 20" fill="none" xmlns="http://www.w3.org/2000/svg">
<g clip-path="url(#clip0)">
<path d="M0.772461 0.805786H3.46066" stroke="white" stroke-width="1.5" stroke-miterlimit="10" stroke-linecap="round"/>
<path d="M3.46094 0.854126L8.09577 16.9702" stroke="white" stroke-width="1.5" stroke-miterlimit="10"/>
<path d="M3.81592 3.88403H21.9999" stroke="white" stroke-width="1.5" stroke-miterlimit="10" stroke-linejoin="round"/>
<path d="M18.292 13.7953L21.2737 4.448" stroke="white" stroke-width="1.5" stroke-miterlimit="10"/>
<path d="M6.9834 13.2313H18.9104" stroke="white" stroke-width="1.5" stroke-miterlimit="10"/>
<path d="M8.52801 19.307C9.27887 19.307 9.88756 18.672 9.88756 17.8888C9.88756 17.1055 9.27887 16.4706 8.52801 16.4706C7.77715 16.4706 7.16846 17.1055 7.16846 17.8888C7.16846 18.672 7.77715 19.307 8.52801 19.307Z" stroke="white" stroke-width="1.5" stroke-miterlimit="10"/>
<path d="M17.798 19.307C18.5489 19.307 19.1576 18.672 19.1576 17.8888C19.1576 17.1055 18.5489 16.4706 17.798 16.4706C17.0472 16.4706 16.4385 17.1055 16.4385 17.8888C16.4385 18.672 17.0472 19.307 17.798 19.307Z" stroke="white" stroke-width="1.5" stroke-miterlimit="10"/>
<path d="M9.73291 16.9863H16.7315" stroke="white" stroke-width="1.5" stroke-miterlimit="10"/>
</g>
<defs>
<clipPath id="clip0">
<rect width="22" height="20" fill="white"/>
</clipPath>
</defs>
</svg>
