<svg width="220" height="63" viewBox="0 0 220 63" fill="none" xmlns="http://www.w3.org/2000/svg">
<path d="M0.6 35.28L1.62 36.39H12.57V41.94H14.79V36.39L17.49 35.82V34.05H14.79V25.59H13.68L12.57 27.84V34.05H4.05L12.87 20.04H10.23L0.6 35.28ZM20.6262 41.31C20.6262 41.73 20.9262 42 21.3462 42H22.9362C23.3562 42 23.6862 41.85 23.6862 41.31V39.6C23.6862 39.12 23.4762 38.85 22.9362 38.85H21.3462C20.8662 38.85 20.6262 39.15 20.6262 39.6V41.31ZM28.05 28.26C28.05 30.6 28.8 32.73 32.88 32.73C35.1 32.73 38.22 32.4 40.77 32.1C40.71 34.62 40.17 39.81 37.44 39.81H28.77V41.46C31.38 42 34.8 42.03 37.83 42.03C40.32 42.03 42.99 39.36 42.99 31.41C42.99 21.96 40.62 19.89 37.35 19.86H32.88C30.06 19.86 28.05 20.97 28.05 24.33V28.26ZM30.24 28.26V24.51C30.24 22.38 31.35 22.08 32.88 22.08H37.35C40.65 22.08 40.77 27.69 40.77 30.51H32.88C31.5 30.51 30.24 30.09 30.24 28.26Z" fill="white"/>
<path d="M110 41.7888L112.885 43.8888L111.781 40.4977L114.667 38.4443H111.128L110 34.9443L108.872 38.4443H105.333L108.219 40.4977L107.114 43.8888L110 41.7888Z" fill="#FFFF66"/>
<path d="M97.9999 41.7888L100.885 43.8888L99.781 40.4977L102.667 38.4443H99.1277L97.9999 34.9443L96.8721 38.4443H93.3333L96.2188 40.4977L95.1144 43.8888L97.9999 41.7888Z" fill="#FFFF66"/>
<path d="M85.9999 41.7888L88.8855 43.8888L87.781 40.4977L90.6666 38.4443H87.1277L85.9999 34.9443L84.8721 38.4443H81.3333L84.2188 40.4977L83.1144 43.8888L85.9999 41.7888Z" fill="#FFFF66"/>
<path d="M73.9999 41.7888L76.8855 43.8888L75.781 40.4977L78.6666 38.4443H75.1277L73.9999 34.9443L72.8721 38.4443H69.3333L72.2188 40.4977L71.1144 43.8888L73.9999 41.7888Z" fill="#FFFF66"/>
<path d="M61.9999 41.7888L64.8855 43.8888L63.781 40.4977L66.6666 38.4443H63.1277L61.9999 34.9443L60.8721 38.4443H57.3333L60.2188 40.4977L59.1144 43.8888L61.9999 41.7888Z" fill="#FFFF66"/>
<path d="M127.431 39.3623C127.431 40.5602 127.117 41.4668 126.488 42.082C125.86 42.694 124.937 43 123.72 43H122.011V35.8613H123.939C125.079 35.8613 125.945 36.1592 126.537 36.7549C127.133 37.3506 127.431 38.2197 127.431 39.3623ZM126.889 39.3818C126.889 38.3597 126.628 37.5915 126.107 37.0771C125.59 36.5596 124.828 36.3008 123.822 36.3008H122.509V42.5605H123.69C125.823 42.5605 126.889 41.501 126.889 39.3818ZM132.172 43L132.05 42.1602H132.011C131.744 42.502 131.469 42.7445 131.186 42.8877C130.906 43.0277 130.574 43.0977 130.189 43.0977C129.669 43.0977 129.263 42.9642 128.974 42.6973C128.684 42.4303 128.539 42.0609 128.539 41.5889C128.539 41.0713 128.754 40.6693 129.184 40.3828C129.617 40.0964 130.242 39.945 131.059 39.9287L132.069 39.8994V39.5479C132.069 39.0433 131.967 38.6624 131.762 38.4053C131.557 38.1481 131.226 38.0195 130.771 38.0195C130.279 38.0195 129.77 38.1562 129.242 38.4297L129.062 38.0098C129.644 37.7363 130.22 37.5996 130.79 37.5996C131.373 37.5996 131.807 37.751 132.094 38.0537C132.383 38.3564 132.528 38.8285 132.528 39.4697V43H132.172ZM130.219 42.6582C130.785 42.6582 131.231 42.4971 131.557 42.1748C131.885 41.8493 132.05 41.3984 132.05 40.8223V40.2998L131.122 40.3389C130.377 40.3747 129.844 40.4919 129.525 40.6904C129.21 40.8857 129.052 41.1917 129.052 41.6084C129.052 41.9404 129.153 42.1992 129.354 42.3848C129.56 42.5671 129.848 42.6582 130.219 42.6582ZM135.414 43L133.363 37.6924H133.861L135.233 41.3008C135.416 41.763 135.552 42.1667 135.644 42.5117H135.673C135.806 42.069 135.943 41.6621 136.083 41.291L137.455 37.6924H137.953L135.902 43H135.414ZM139.325 43H138.842V37.6924H139.325V43ZM138.773 36.2178C138.773 35.9053 138.876 35.749 139.081 35.749C139.182 35.749 139.26 35.7897 139.315 35.8711C139.374 35.9525 139.403 36.068 139.403 36.2178C139.403 36.3643 139.374 36.4798 139.315 36.5645C139.26 36.6491 139.182 36.6914 139.081 36.6914C138.876 36.6914 138.773 36.5335 138.773 36.2178ZM143.051 37.5898C143.435 37.5898 143.767 37.6598 144.047 37.7998C144.327 37.9398 144.577 38.179 144.799 38.5176H144.828C144.809 38.1074 144.799 37.7054 144.799 37.3115V35.4023H145.277V43H144.96L144.838 42.1895H144.799C144.395 42.7949 143.816 43.0977 143.061 43.0977C142.328 43.0977 141.768 42.8698 141.381 42.4141C140.993 41.9583 140.8 41.2943 140.8 40.4219C140.8 39.5039 140.992 38.8024 141.376 38.3174C141.76 37.8324 142.318 37.5898 143.051 37.5898ZM143.051 38.0293C142.471 38.0293 142.035 38.2327 141.742 38.6396C141.452 39.0465 141.308 39.6374 141.308 40.4121C141.308 41.916 141.892 42.668 143.061 42.668C143.66 42.668 144.099 42.4938 144.379 42.1455C144.659 41.7972 144.799 41.2227 144.799 40.4219V40.3389C144.799 39.5186 144.66 38.9294 144.384 38.5713C144.11 38.21 143.666 38.0293 143.051 38.0293ZM153.725 41.1592C153.725 41.7549 153.505 42.2269 153.065 42.5752C152.629 42.9235 152.048 43.0977 151.322 43.0977C150.45 43.0977 149.781 43.0016 149.315 42.8096V42.3115C149.83 42.5296 150.486 42.6387 151.283 42.6387C151.869 42.6387 152.333 42.5052 152.675 42.2383C153.02 41.9681 153.192 41.6149 153.192 41.1787C153.192 40.9085 153.135 40.6855 153.021 40.5098C152.908 40.3307 152.722 40.168 152.465 40.0215C152.208 39.875 151.83 39.7171 151.332 39.5479C150.603 39.2972 150.098 39.027 149.818 38.7373C149.542 38.4443 149.403 38.0553 149.403 37.5703C149.403 37.0365 149.612 36.6019 150.028 36.2666C150.448 35.9281 150.987 35.7588 151.645 35.7588C152.315 35.7588 152.945 35.8857 153.534 36.1396L153.354 36.5693C152.761 36.3219 152.195 36.1982 151.654 36.1982C151.127 36.1982 150.707 36.3203 150.395 36.5645C150.082 36.8086 149.926 37.1406 149.926 37.5605C149.926 37.8242 149.973 38.0407 150.067 38.21C150.165 38.3792 150.323 38.5322 150.541 38.6689C150.759 38.8024 151.133 38.9635 151.664 39.1523C152.221 39.3444 152.639 39.5316 152.919 39.7139C153.199 39.8929 153.402 40.098 153.529 40.3291C153.66 40.557 153.725 40.8337 153.725 41.1592ZM161.742 43V39.5186C161.742 39.001 161.641 38.6234 161.439 38.3857C161.238 38.1481 160.928 38.0293 160.512 38.0293C159.968 38.0293 159.566 38.179 159.306 38.4785C159.045 38.778 158.915 39.2484 158.915 39.8896V43H158.422V39.3721C158.422 38.4769 158.012 38.0293 157.191 38.0293C156.635 38.0293 156.229 38.1921 155.976 38.5176C155.722 38.8398 155.595 39.3574 155.595 40.0703V43H155.111V37.6924H155.512L155.614 38.4199H155.644C155.79 38.1562 155.998 37.9528 156.269 37.8096C156.539 37.6631 156.837 37.5898 157.162 37.5898C157.999 37.5898 158.536 37.904 158.773 38.5322H158.793C158.965 38.2295 159.197 37.9967 159.486 37.834C159.779 37.6712 160.111 37.5898 160.482 37.5898C161.062 37.5898 161.496 37.7445 161.786 38.0537C162.076 38.363 162.221 38.8545 162.221 39.5283V43H161.742ZM164.423 43H163.939V37.6924H164.423V43ZM163.871 36.2178C163.871 35.9053 163.974 35.749 164.179 35.749C164.28 35.749 164.358 35.7897 164.413 35.8711C164.472 35.9525 164.501 36.068 164.501 36.2178C164.501 36.3643 164.472 36.4798 164.413 36.5645C164.358 36.6491 164.28 36.6914 164.179 36.6914C163.974 36.6914 163.871 36.5335 163.871 36.2178ZM167.606 42.668C167.912 42.668 168.179 42.6419 168.407 42.5898V42.9805C168.173 43.0586 167.903 43.0977 167.597 43.0977C167.128 43.0977 166.781 42.9723 166.557 42.7217C166.335 42.471 166.225 42.0771 166.225 41.54V38.1123H165.438V37.8291L166.225 37.6094L166.469 36.4082H166.718V37.6924H168.275V38.1123H166.718V41.4717C166.718 41.8786 166.789 42.1797 166.933 42.375C167.076 42.5703 167.3 42.668 167.606 42.668ZM173.256 43V39.5576C173.256 39.0238 173.144 38.6364 172.919 38.3955C172.694 38.1514 172.346 38.0293 171.874 38.0293C171.239 38.0293 170.774 38.1904 170.478 38.5127C170.185 38.8317 170.038 39.3509 170.038 40.0703V43H169.555V35.4023H170.038V37.8193L170.014 38.498H170.048C170.246 38.179 170.497 37.9479 170.8 37.8047C171.103 37.6615 171.479 37.5898 171.928 37.5898C173.132 37.5898 173.734 38.236 173.734 39.5283V43H173.256Z" fill="#C4C4C4"/>
<path d="M61.582 24.6816H64.7402V28.5898C63.9121 28.9414 62.9805 29.1172 61.9453 29.1172C60.5938 29.1172 59.5566 28.7363 58.834 27.9746C58.1152 27.209 57.7559 26.127 57.7559 24.7285C57.7559 23.8574 57.9336 23.0859 58.2891 22.4141C58.6484 21.7383 59.1602 21.2168 59.8242 20.8496C60.4922 20.4824 61.2578 20.2988 62.1211 20.2988C63.0547 20.2988 63.8926 20.4707 64.6348 20.8145L64.3945 21.3535C63.6523 21.0098 62.8828 20.8379 62.0859 20.8379C60.957 20.8379 60.0605 21.1875 59.3965 21.8867C58.7363 22.582 58.4062 23.5215 58.4062 24.7051C58.4062 25.9941 58.7207 26.9648 59.3496 27.6172C59.9785 28.2656 60.9023 28.5898 62.1211 28.5898C62.9102 28.5898 63.5801 28.4785 64.1309 28.2559V25.2441H61.582V24.6816ZM69.2578 22.5078C69.5273 22.5078 69.8164 22.5352 70.125 22.5898L70.0137 23.1465C69.748 23.0801 69.4727 23.0469 69.1875 23.0469C68.6445 23.0469 68.1992 23.2773 67.8516 23.7383C67.5039 24.1992 67.3301 24.7812 67.3301 25.4844V29H66.75V22.6309H67.2422L67.3008 23.7793H67.3418C67.6035 23.3105 67.8828 22.9824 68.1797 22.7949C68.4766 22.6035 68.8359 22.5078 69.2578 22.5078ZM73.998 29.1172C73.0723 29.1172 72.3496 28.832 71.8301 28.2617C71.3145 27.6914 71.0566 26.8926 71.0566 25.8652C71.0566 24.8496 71.3066 24.0371 71.8066 23.4277C72.3066 22.8145 72.9805 22.5078 73.8281 22.5078C74.5781 22.5078 75.1699 22.7695 75.6035 23.293C76.0371 23.8164 76.2539 24.5273 76.2539 25.4258V25.8945H71.666C71.6738 26.7695 71.877 27.4375 72.2754 27.8984C72.6777 28.3594 73.252 28.5898 73.998 28.5898C74.3613 28.5898 74.6797 28.5645 74.9531 28.5137C75.2305 28.4629 75.5801 28.3535 76.002 28.1855V28.7129C75.6426 28.8691 75.3105 28.9746 75.0059 29.0293C74.7012 29.0879 74.3652 29.1172 73.998 29.1172ZM73.8281 23.0234C73.2148 23.0234 72.7227 23.2266 72.3516 23.6328C71.9805 24.0352 71.7637 24.6172 71.7012 25.3789H75.6387C75.6387 24.6406 75.4785 24.0645 75.1582 23.6504C74.8379 23.2324 74.3945 23.0234 73.8281 23.0234ZM81.8789 29L81.7324 27.9922H81.6855C81.3652 28.4023 81.0352 28.6934 80.6953 28.8652C80.3594 29.0332 79.9609 29.1172 79.5 29.1172C78.875 29.1172 78.3887 28.957 78.041 28.6367C77.6934 28.3164 77.5195 27.873 77.5195 27.3066C77.5195 26.6855 77.7773 26.2031 78.293 25.8594C78.8125 25.5156 79.5625 25.334 80.543 25.3145L81.7559 25.2793V24.8574C81.7559 24.252 81.6328 23.7949 81.3867 23.4863C81.1406 23.1777 80.7441 23.0234 80.1973 23.0234C79.6074 23.0234 78.9961 23.1875 78.3633 23.5156L78.1465 23.0117C78.8457 22.6836 79.5371 22.5195 80.2207 22.5195C80.9199 22.5195 81.4414 22.7012 81.7852 23.0645C82.1328 23.4277 82.3066 23.9941 82.3066 24.7637V29H81.8789ZM79.5352 28.5898C80.2148 28.5898 80.75 28.3965 81.1406 28.0098C81.5352 27.6191 81.7324 27.0781 81.7324 26.3867V25.7598L80.6191 25.8066C79.7246 25.8496 79.0859 25.9902 78.7031 26.2285C78.3242 26.4629 78.1348 26.8301 78.1348 27.3301C78.1348 27.7285 78.2559 28.0391 78.498 28.2617C78.7441 28.4805 79.0898 28.5898 79.5352 28.5898ZM86.0566 28.6016C86.4238 28.6016 86.7441 28.5703 87.0176 28.5078V28.9766C86.7363 29.0703 86.4121 29.1172 86.0449 29.1172C85.4824 29.1172 85.0664 28.9668 84.7969 28.666C84.5312 28.3652 84.3984 27.8926 84.3984 27.248V23.1348H83.4551V22.7949L84.3984 22.5312L84.6914 21.0898H84.9902V22.6309H86.8594V23.1348H84.9902V27.166C84.9902 27.6543 85.0762 28.0156 85.248 28.25C85.4199 28.4844 85.6895 28.6016 86.0566 28.6016ZM95.4609 27.3418C95.4609 27.9121 95.2441 28.3516 94.8105 28.6602C94.377 28.9648 93.7617 29.1172 92.9648 29.1172C92.1133 29.1172 91.4375 28.9863 90.9375 28.7246V28.0977C91.5781 28.418 92.2539 28.5781 92.9648 28.5781C93.5938 28.5781 94.0703 28.4746 94.3945 28.2676C94.7227 28.0566 94.8867 27.7773 94.8867 27.4297C94.8867 27.1094 94.7559 26.8398 94.4941 26.6211C94.2363 26.4023 93.8105 26.1875 93.2168 25.9766C92.5801 25.7461 92.1328 25.5488 91.875 25.3848C91.6172 25.2168 91.4219 25.0293 91.2891 24.8223C91.1602 24.6113 91.0957 24.3555 91.0957 24.0547C91.0957 23.5781 91.2949 23.2012 91.6934 22.9238C92.0957 22.6465 92.6562 22.5078 93.375 22.5078C94.0625 22.5078 94.7148 22.6367 95.332 22.8945L95.1152 23.4219C94.4902 23.1641 93.9102 23.0352 93.375 23.0352C92.8555 23.0352 92.4434 23.1211 92.1387 23.293C91.834 23.4648 91.6816 23.7031 91.6816 24.0078C91.6816 24.3398 91.7988 24.6055 92.0332 24.8047C92.2715 25.0039 92.7344 25.2266 93.4219 25.4727C93.9961 25.6797 94.4141 25.8672 94.6758 26.0352C94.9375 26.1992 95.1328 26.3867 95.2617 26.5977C95.3945 26.8086 95.4609 27.0566 95.4609 27.3418ZM99.6738 29.1172C98.748 29.1172 98.0254 28.832 97.5059 28.2617C96.9902 27.6914 96.7324 26.8926 96.7324 25.8652C96.7324 24.8496 96.9824 24.0371 97.4824 23.4277C97.9824 22.8145 98.6562 22.5078 99.5039 22.5078C100.254 22.5078 100.846 22.7695 101.279 23.293C101.713 23.8164 101.93 24.5273 101.93 25.4258V25.8945H97.3418C97.3496 26.7695 97.5527 27.4375 97.9512 27.8984C98.3535 28.3594 98.9277 28.5898 99.6738 28.5898C100.037 28.5898 100.355 28.5645 100.629 28.5137C100.906 28.4629 101.256 28.3535 101.678 28.1855V28.7129C101.318 28.8691 100.986 28.9746 100.682 29.0293C100.377 29.0879 100.041 29.1172 99.6738 29.1172ZM99.5039 23.0234C98.8906 23.0234 98.3984 23.2266 98.0273 23.6328C97.6562 24.0352 97.4395 24.6172 97.377 25.3789H101.314C101.314 24.6406 101.154 24.0645 100.834 23.6504C100.514 23.2324 100.07 23.0234 99.5039 23.0234ZM106.195 22.5078C106.465 22.5078 106.754 22.5352 107.062 22.5898L106.951 23.1465C106.686 23.0801 106.41 23.0469 106.125 23.0469C105.582 23.0469 105.137 23.2773 104.789 23.7383C104.441 24.1992 104.268 24.7812 104.268 25.4844V29H103.688V22.6309H104.18L104.238 23.7793H104.279C104.541 23.3105 104.82 22.9824 105.117 22.7949C105.414 22.6035 105.773 22.5078 106.195 22.5078ZM109.758 29L107.297 22.6309H107.895L109.541 26.9609C109.76 27.5156 109.924 28 110.033 28.4141H110.068C110.229 27.8828 110.393 27.3945 110.561 26.9492L112.207 22.6309H112.805L110.344 29H109.758ZM114.451 29H113.871V22.6309H114.451V29ZM113.789 20.8613C113.789 20.4863 113.912 20.2988 114.158 20.2988C114.279 20.2988 114.373 20.3477 114.439 20.4453C114.51 20.543 114.545 20.6816 114.545 20.8613C114.545 21.0371 114.51 21.1758 114.439 21.2773C114.373 21.3789 114.279 21.4297 114.158 21.4297C113.912 21.4297 113.789 21.2402 113.789 20.8613ZM119.133 29.1172C118.223 29.1172 117.51 28.8301 116.994 28.2559C116.479 27.6816 116.221 26.8809 116.221 25.8535C116.221 24.7988 116.488 23.9785 117.023 23.3926C117.559 22.8027 118.291 22.5078 119.221 22.5078C119.771 22.5078 120.299 22.6035 120.803 22.7949L120.645 23.3105C120.094 23.127 119.615 23.0352 119.209 23.0352C118.428 23.0352 117.836 23.2773 117.434 23.7617C117.031 24.2422 116.83 24.9355 116.83 25.8418C116.83 26.7012 117.031 27.375 117.434 27.8633C117.836 28.3477 118.398 28.5898 119.121 28.5898C119.699 28.5898 120.236 28.4863 120.732 28.2793V28.8184C120.326 29.0176 119.793 29.1172 119.133 29.1172ZM124.869 29.1172C123.943 29.1172 123.221 28.832 122.701 28.2617C122.186 27.6914 121.928 26.8926 121.928 25.8652C121.928 24.8496 122.178 24.0371 122.678 23.4277C123.178 22.8145 123.852 22.5078 124.699 22.5078C125.449 22.5078 126.041 22.7695 126.475 23.293C126.908 23.8164 127.125 24.5273 127.125 25.4258V25.8945H122.537C122.545 26.7695 122.748 27.4375 123.146 27.8984C123.549 28.3594 124.123 28.5898 124.869 28.5898C125.232 28.5898 125.551 28.5645 125.824 28.5137C126.102 28.4629 126.451 28.3535 126.873 28.1855V28.7129C126.514 28.8691 126.182 28.9746 125.877 29.0293C125.572 29.0879 125.236 29.1172 124.869 29.1172ZM124.699 23.0234C124.086 23.0234 123.594 23.2266 123.223 23.6328C122.852 24.0352 122.635 24.6172 122.572 25.3789H126.51C126.51 24.6406 126.35 24.0645 126.029 23.6504C125.709 23.2324 125.266 23.0234 124.699 23.0234ZM135.867 29L135.721 27.9922H135.674C135.354 28.4023 135.023 28.6934 134.684 28.8652C134.348 29.0332 133.949 29.1172 133.488 29.1172C132.863 29.1172 132.377 28.957 132.029 28.6367C131.682 28.3164 131.508 27.873 131.508 27.3066C131.508 26.6855 131.766 26.2031 132.281 25.8594C132.801 25.5156 133.551 25.334 134.531 25.3145L135.744 25.2793V24.8574C135.744 24.252 135.621 23.7949 135.375 23.4863C135.129 23.1777 134.732 23.0234 134.186 23.0234C133.596 23.0234 132.984 23.1875 132.352 23.5156L132.135 23.0117C132.834 22.6836 133.525 22.5195 134.209 22.5195C134.908 22.5195 135.43 22.7012 135.773 23.0645C136.121 23.4277 136.295 23.9941 136.295 24.7637V29H135.867ZM133.523 28.5898C134.203 28.5898 134.738 28.3965 135.129 28.0098C135.523 27.6191 135.721 27.0781 135.721 26.3867V25.7598L134.607 25.8066C133.713 25.8496 133.074 25.9902 132.691 26.2285C132.312 26.4629 132.123 26.8301 132.123 27.3301C132.123 27.7285 132.244 28.0391 132.486 28.2617C132.732 28.4805 133.078 28.5898 133.523 28.5898ZM142.805 29V24.8691C142.805 24.2285 142.67 23.7637 142.4 23.4746C142.131 23.1816 141.713 23.0352 141.146 23.0352C140.385 23.0352 139.826 23.2285 139.471 23.6152C139.119 23.998 138.943 24.6211 138.943 25.4844V29H138.363V22.6309H138.855L138.967 23.5039H139.002C139.416 22.8398 140.152 22.5078 141.211 22.5078C142.656 22.5078 143.379 23.2832 143.379 24.834V29H142.805ZM147.773 22.5078C148.234 22.5078 148.633 22.5918 148.969 22.7598C149.305 22.9277 149.605 23.2148 149.871 23.6211H149.906C149.883 23.1289 149.871 22.6465 149.871 22.1738V19.8828H150.445V29H150.064L149.918 28.0273H149.871C149.387 28.7539 148.691 29.1172 147.785 29.1172C146.906 29.1172 146.234 28.8438 145.77 28.2969C145.305 27.75 145.072 26.9531 145.072 25.9062C145.072 24.8047 145.303 23.9629 145.764 23.3809C146.225 22.7988 146.895 22.5078 147.773 22.5078ZM147.773 23.0352C147.078 23.0352 146.555 23.2793 146.203 23.7676C145.855 24.2559 145.682 24.9648 145.682 25.8945C145.682 27.6992 146.383 28.6016 147.785 28.6016C148.504 28.6016 149.031 28.3926 149.367 27.9746C149.703 27.5566 149.871 26.8672 149.871 25.9062V25.8066C149.871 24.8223 149.705 24.1152 149.373 23.6855C149.045 23.252 148.512 23.0352 147.773 23.0352ZM158.432 29.1172C157.451 29.1172 156.736 28.75 156.287 28.0156H156.246L156.264 28.5078C156.279 28.7969 156.287 29.1133 156.287 29.457V31.8828H155.707V22.6309H156.199L156.311 23.5391H156.346C156.783 22.8516 157.482 22.5078 158.443 22.5078C159.303 22.5078 159.957 22.791 160.406 23.3574C160.859 23.9199 161.086 24.7402 161.086 25.8184C161.086 26.8652 160.848 27.6777 160.371 28.2559C159.898 28.8301 159.252 29.1172 158.432 29.1172ZM158.42 28.6016C159.072 28.6016 159.576 28.3594 159.932 27.875C160.291 27.3906 160.471 26.7129 160.471 25.8418C160.471 23.9707 159.795 23.0352 158.443 23.0352C157.701 23.0352 157.156 23.2402 156.809 23.6504C156.461 24.0566 156.287 24.7207 156.287 25.6426V25.8301C156.287 26.8262 156.453 27.5371 156.785 27.9629C157.121 28.3887 157.666 28.6016 158.42 28.6016ZM165.363 22.5078C165.633 22.5078 165.922 22.5352 166.23 22.5898L166.119 23.1465C165.854 23.0801 165.578 23.0469 165.293 23.0469C164.75 23.0469 164.305 23.2773 163.957 23.7383C163.609 24.1992 163.436 24.7812 163.436 25.4844V29H162.855V22.6309H163.348L163.406 23.7793H163.447C163.709 23.3105 163.988 22.9824 164.285 22.7949C164.582 22.6035 164.941 22.5078 165.363 22.5078ZM168.111 29H167.531V22.6309H168.111V29ZM167.449 20.8613C167.449 20.4863 167.572 20.2988 167.818 20.2988C167.939 20.2988 168.033 20.3477 168.1 20.4453C168.17 20.543 168.205 20.6816 168.205 20.8613C168.205 21.0371 168.17 21.1758 168.1 21.2773C168.033 21.3789 167.939 21.4297 167.818 21.4297C167.572 21.4297 167.449 21.2402 167.449 20.8613ZM172.793 29.1172C171.883 29.1172 171.17 28.8301 170.654 28.2559C170.139 27.6816 169.881 26.8809 169.881 25.8535C169.881 24.7988 170.148 23.9785 170.684 23.3926C171.219 22.8027 171.951 22.5078 172.881 22.5078C173.432 22.5078 173.959 22.6035 174.463 22.7949L174.305 23.3105C173.754 23.127 173.275 23.0352 172.869 23.0352C172.088 23.0352 171.496 23.2773 171.094 23.7617C170.691 24.2422 170.49 24.9355 170.49 25.8418C170.49 26.7012 170.691 27.375 171.094 27.8633C171.496 28.3477 172.059 28.5898 172.781 28.5898C173.359 28.5898 173.896 28.4863 174.393 28.2793V28.8184C173.986 29.0176 173.453 29.1172 172.793 29.1172ZM178.529 29.1172C177.604 29.1172 176.881 28.832 176.361 28.2617C175.846 27.6914 175.588 26.8926 175.588 25.8652C175.588 24.8496 175.838 24.0371 176.338 23.4277C176.838 22.8145 177.512 22.5078 178.359 22.5078C179.109 22.5078 179.701 22.7695 180.135 23.293C180.568 23.8164 180.785 24.5273 180.785 25.4258V25.8945H176.197C176.205 26.7695 176.408 27.4375 176.807 27.8984C177.209 28.3594 177.783 28.5898 178.529 28.5898C178.893 28.5898 179.211 28.5645 179.484 28.5137C179.762 28.4629 180.111 28.3535 180.533 28.1855V28.7129C180.174 28.8691 179.842 28.9746 179.537 29.0293C179.232 29.0879 178.896 29.1172 178.529 29.1172ZM178.359 23.0234C177.746 23.0234 177.254 23.2266 176.883 23.6328C176.512 24.0352 176.295 24.6172 176.232 25.3789H180.17C180.17 24.6406 180.01 24.0645 179.689 23.6504C179.369 23.2324 178.926 23.0234 178.359 23.0234ZM186.492 27.3418C186.492 27.9121 186.275 28.3516 185.842 28.6602C185.408 28.9648 184.793 29.1172 183.996 29.1172C183.145 29.1172 182.469 28.9863 181.969 28.7246V28.0977C182.609 28.418 183.285 28.5781 183.996 28.5781C184.625 28.5781 185.102 28.4746 185.426 28.2676C185.754 28.0566 185.918 27.7773 185.918 27.4297C185.918 27.1094 185.787 26.8398 185.525 26.6211C185.268 26.4023 184.842 26.1875 184.248 25.9766C183.611 25.7461 183.164 25.5488 182.906 25.3848C182.648 25.2168 182.453 25.0293 182.32 24.8223C182.191 24.6113 182.127 24.3555 182.127 24.0547C182.127 23.5781 182.326 23.2012 182.725 22.9238C183.127 22.6465 183.688 22.5078 184.406 22.5078C185.094 22.5078 185.746 22.6367 186.363 22.8945L186.146 23.4219C185.521 23.1641 184.941 23.0352 184.406 23.0352C183.887 23.0352 183.475 23.1211 183.17 23.293C182.865 23.4648 182.713 23.7031 182.713 24.0078C182.713 24.3398 182.83 24.6055 183.064 24.8047C183.303 25.0039 183.766 25.2266 184.453 25.4727C185.027 25.6797 185.445 25.8672 185.707 26.0352C185.969 26.1992 186.164 26.3867 186.293 26.5977C186.426 26.8086 186.492 27.0566 186.492 27.3418ZM188.684 26.791H188.326L188.156 20.4336H188.854L188.684 26.791ZM188.027 28.543C188.027 28.1602 188.184 27.9688 188.496 27.9688C188.816 27.9688 188.977 28.1602 188.977 28.543C188.977 28.9258 188.816 29.1172 188.496 29.1172C188.184 29.1172 188.027 28.9258 188.027 28.543Z" fill="#C4C4C4"/>
</svg>
