<svg width="169" height="22" viewBox="0 0 169 22" fill="none" xmlns="http://www.w3.org/2000/svg">
<g clip-path="url(#clip0)">
<path d="M12.6852 16.349L13.0456 16.6068L12.9093 16.1868L13.2697 15.9386H12.8314L12.6852 15.509L12.5391 15.9386H12.1008L12.4612 16.1868L12.3249 16.6068L12.6852 16.349Z" fill="white"/>
<path d="M14.2436 16.349L14.604 16.6068L14.4676 16.1868L14.828 15.9386H14.3897L14.2436 15.509L14.0975 15.9386H13.6592L14.0196 16.1868L13.8832 16.6068L14.2436 16.349Z" fill="white"/>
<path d="M15.8019 16.349L16.1623 16.6068L16.026 16.1868L16.3864 15.9386H15.948L15.8019 15.509L15.6558 15.9386H15.2175L15.5779 16.1868L15.4416 16.6068L15.8019 16.349Z" fill="white"/>
<path d="M17.3605 16.349L17.7209 16.6068L17.5846 16.1868L17.945 15.9386H17.5066L17.3605 15.509L17.2144 15.9386H16.7761L17.1365 16.1868L17.0001 16.6068L17.3605 16.349Z" fill="white"/>
<path d="M18.9189 16.349L19.2793 16.6068L19.1429 16.1868L19.5033 15.9386H19.065L18.9189 15.509L18.7728 15.9386H18.3345L18.6949 16.1868L18.5585 16.6068L18.9189 16.349Z" fill="white"/>
<path d="M13.9267 19.1363V19.0522C14.0108 18.9697 14.0857 18.8952 14.1511 18.8288C14.2166 18.7624 14.2715 18.7011 14.3159 18.6449C14.3603 18.5877 14.3942 18.5356 14.4176 18.4886C14.441 18.4405 14.4527 18.3941 14.4527 18.3494C14.4527 18.2864 14.4351 18.2349 14.4001 18.1948C14.365 18.1547 14.3118 18.1346 14.2405 18.1346C14.1938 18.1346 14.1505 18.1478 14.1108 18.1742C14.071 18.1994 14.0348 18.2303 14.0021 18.2669L13.9197 18.1862C13.9664 18.1358 14.0161 18.0957 14.0687 18.0659C14.1213 18.035 14.1844 18.0195 14.2581 18.0195C14.3621 18.0195 14.4439 18.0493 14.5035 18.1089C14.5631 18.1673 14.5929 18.2452 14.5929 18.3425C14.5929 18.3941 14.5812 18.4462 14.5579 18.4989C14.5357 18.5504 14.5041 18.6043 14.4632 18.6604C14.4234 18.7154 14.3755 18.7732 14.3194 18.8339C14.2645 18.8935 14.2037 18.9571 14.1371 19.0247C14.1675 19.0224 14.199 19.0201 14.2318 19.0178C14.2645 19.0155 14.2955 19.0144 14.3247 19.0144H14.649V19.1363H13.9267ZM15.2348 19.157C15.1214 19.157 15.0331 19.1077 14.97 19.0092C14.9069 18.9107 14.8753 18.7692 14.8753 18.5848C14.8753 18.4004 14.9069 18.2601 14.97 18.1639C15.0331 18.0676 15.1214 18.0195 15.2348 18.0195C15.347 18.0195 15.4346 18.0676 15.4977 18.1639C15.5609 18.2601 15.5924 18.4004 15.5924 18.5848C15.5924 18.7692 15.5609 18.9107 15.4977 19.0092C15.4346 19.1077 15.347 19.157 15.2348 19.157ZM15.2348 19.0436C15.2675 19.0436 15.2967 19.035 15.3224 19.0178C15.3493 18.9995 15.3721 18.972 15.3908 18.9353C15.4107 18.8975 15.4259 18.85 15.4364 18.7927C15.4469 18.7343 15.4522 18.665 15.4522 18.5848C15.4522 18.5046 15.4469 18.4359 15.4364 18.3786C15.4259 18.3214 15.4107 18.275 15.3908 18.2395C15.3721 18.2028 15.3493 18.1759 15.3224 18.1587C15.2967 18.1415 15.2675 18.1329 15.2348 18.1329C15.202 18.1329 15.1722 18.1415 15.1453 18.1587C15.1185 18.1759 15.0951 18.2028 15.0752 18.2395C15.0565 18.275 15.0419 18.3214 15.0314 18.3786C15.0209 18.4359 15.0156 18.5046 15.0156 18.5848C15.0156 18.7452 15.0355 18.862 15.0752 18.9353C15.1161 19.0075 15.1693 19.0436 15.2348 19.0436ZM15.8783 19.1363V19.0195H16.1343V18.212H15.9309V18.1209C15.9823 18.1117 16.0268 18.1009 16.0642 18.0883C16.1027 18.0745 16.1372 18.0585 16.1676 18.0401H16.278V19.0195H16.5095V19.1363H15.8783ZM17.0934 18.6037C17.1308 18.6037 17.17 18.5923 17.2109 18.5693C17.253 18.5464 17.2921 18.5092 17.3284 18.4577C17.319 18.35 17.2933 18.2687 17.2512 18.2137C17.2091 18.1587 17.1525 18.1312 17.0812 18.1312C17.0543 18.1312 17.0286 18.1369 17.004 18.1484C16.9806 18.1598 16.9602 18.1765 16.9426 18.1982C16.9251 18.2188 16.9111 18.244 16.9006 18.2738C16.8912 18.3036 16.8865 18.3362 16.8865 18.3718C16.8865 18.4439 16.9035 18.5006 16.9374 18.5419C16.9713 18.5831 17.0233 18.6037 17.0934 18.6037ZM17.0408 19.157C16.9812 19.157 16.9286 19.1461 16.883 19.1243C16.8386 19.1026 16.8012 19.0751 16.7708 19.0418L16.8515 18.9525C16.8749 18.9788 16.9023 19 16.9339 19.0161C16.9666 19.0321 17.0005 19.0401 17.0356 19.0401C17.0753 19.0401 17.1127 19.0321 17.1478 19.0161C17.1828 19 17.2138 18.9737 17.2407 18.937C17.2676 18.8992 17.2892 18.8506 17.3056 18.791C17.3219 18.7314 17.3307 18.6575 17.3319 18.5693C17.2968 18.6129 17.2559 18.6472 17.2091 18.6724C17.1624 18.6976 17.1156 18.7102 17.0689 18.7102C16.9719 18.7102 16.8947 18.6822 16.8375 18.626C16.7802 18.5699 16.7515 18.4852 16.7515 18.3718C16.7515 18.3191 16.7603 18.2715 16.7778 18.2291C16.7954 18.1856 16.8187 18.1484 16.848 18.1175C16.8784 18.0865 16.9134 18.0625 16.9532 18.0453C16.9941 18.0281 17.0367 18.0195 17.0812 18.0195C17.1361 18.0195 17.1869 18.0304 17.2337 18.0522C17.2816 18.0739 17.3225 18.1072 17.3564 18.1518C17.3915 18.1954 17.4184 18.2503 17.4371 18.3168C17.4569 18.3821 17.4669 18.4588 17.4669 18.547C17.4669 18.657 17.4552 18.7509 17.4318 18.8288C17.4084 18.9055 17.3769 18.9685 17.3371 19.0178C17.2974 19.0659 17.2518 19.1014 17.2004 19.1243C17.1501 19.1461 17.0969 19.157 17.0408 19.157Z" fill="white"/>
<path d="M12.8214 5.99994H13.4321C13.5315 5.99994 13.622 6.00853 13.7039 6.02571C13.7876 6.04099 13.8597 6.06676 13.9201 6.10303C13.9824 6.13739 14.0302 6.18417 14.0633 6.24335C14.0983 6.30253 14.1159 6.37508 14.1159 6.46099C14.1159 6.55071 14.0886 6.63376 14.034 6.71012C13.9815 6.78649 13.8996 6.83899 13.7886 6.86762V6.87908C13.9269 6.90199 14.0321 6.95067 14.1042 7.02512C14.1782 7.09767 14.2152 7.19694 14.2152 7.32294C14.2152 7.41648 14.1967 7.49762 14.1597 7.56635C14.1227 7.63508 14.0711 7.69235 14.0048 7.73817C13.9405 7.78398 13.8636 7.81835 13.774 7.84126C13.6844 7.86226 13.587 7.87276 13.4818 7.87276H12.8214V5.99994ZM13.4029 6.77599C13.5373 6.77599 13.6337 6.75212 13.6922 6.70439C13.7526 6.65667 13.7827 6.58889 13.7827 6.50108C13.7827 6.41517 13.7516 6.35312 13.6892 6.31494C13.6269 6.27676 13.5334 6.25767 13.4087 6.25767H13.1603V6.77599H13.4029ZM13.4467 7.61503C13.587 7.61503 13.6951 7.58926 13.7711 7.53771C13.847 7.48617 13.885 7.40694 13.885 7.30003C13.885 7.20267 13.848 7.13108 13.774 7.08526C13.7 7.03753 13.5909 7.01367 13.4467 7.01367H13.1603V7.61503H13.4467ZM14.5649 5.99994H15.7162V6.28058H14.9039V6.7588H15.5906V7.03944H14.9039V7.59212H15.7455V7.87276H14.5649V5.99994ZM16.2045 7.40599C16.2727 7.46899 16.3506 7.52053 16.4382 7.56062C16.5259 7.5988 16.6136 7.61789 16.7012 7.61789C16.8103 7.61789 16.8931 7.59594 16.9496 7.55203C17.0061 7.50812 17.0343 7.44989 17.0343 7.37735C17.0343 7.33917 17.0265 7.30671 17.011 7.27999C16.9973 7.25326 16.9769 7.23035 16.9496 7.21126C16.9243 7.19026 16.8931 7.17117 16.8561 7.15399C16.821 7.1368 16.7821 7.11962 16.7392 7.10244L16.4762 6.99076C16.4295 6.97167 16.3827 6.9478 16.336 6.91917C16.2912 6.89053 16.2502 6.85617 16.2132 6.81608C16.1762 6.77599 16.146 6.72921 16.1227 6.67576C16.1012 6.6223 16.0905 6.56121 16.0905 6.49249C16.0905 6.41803 16.1061 6.3493 16.1373 6.2863C16.1704 6.22139 16.2152 6.16508 16.2717 6.11735C16.3282 6.06962 16.3954 6.03239 16.4733 6.00567C16.5532 5.97894 16.6399 5.96558 16.7334 5.96558C16.8444 5.96558 16.9515 5.98753 17.0548 6.03144C17.158 6.07344 17.2467 6.13071 17.3207 6.20326L17.1483 6.41517C17.086 6.36553 17.0217 6.32639 16.9554 6.29776C16.8892 6.26912 16.8152 6.2548 16.7334 6.2548C16.6418 6.2548 16.5688 6.27485 16.5142 6.31494C16.4597 6.35312 16.4324 6.40658 16.4324 6.4753C16.4324 6.51158 16.4402 6.54308 16.4558 6.5698C16.4733 6.59462 16.4957 6.61753 16.523 6.63853C16.5522 6.65762 16.5853 6.67576 16.6223 6.69294C16.6593 6.70821 16.6973 6.72349 16.7363 6.73876L16.9964 6.84471C17.0528 6.86762 17.1045 6.89435 17.1512 6.92489C17.198 6.95544 17.2379 6.99076 17.271 7.03085C17.3061 7.07094 17.3334 7.11771 17.3528 7.17117C17.3723 7.22271 17.3821 7.28285 17.3821 7.35158C17.3821 7.42794 17.3665 7.49953 17.3353 7.56635C17.3041 7.63317 17.2584 7.69235 17.198 7.74389C17.1395 7.79353 17.0675 7.83362 16.9817 7.86417C16.898 7.8928 16.8025 7.90712 16.6954 7.90712C16.5668 7.90712 16.4421 7.88326 16.3214 7.83553C16.2025 7.7878 16.0973 7.72003 16.0058 7.63221L16.2045 7.40599ZM18.0582 6.28058H17.5059V5.99994H18.9494V6.28058H18.3972V7.87276H18.0582V6.28058ZM10.811 9.24539H11.1851L11.5299 10.1675L11.6555 10.5226H11.6672L11.7899 10.1675L12.1289 9.24539H12.5029V11.1182H12.1844V10.262C12.1844 10.2181 12.1854 10.1703 12.1873 10.1188C12.1912 10.0673 12.1951 10.0157 12.199 9.96417C12.2029 9.91071 12.2078 9.85917 12.2136 9.80953C12.2195 9.75799 12.2243 9.71026 12.2282 9.66635H12.2166L12.0617 10.093L11.7315 10.9435H11.5737L11.2435 10.093L11.0916 9.66635H11.0799C11.0838 9.71026 11.0877 9.75799 11.0916 9.80953C11.0974 9.85917 11.1023 9.91071 11.1062 9.96417C11.112 10.0157 11.1159 10.0673 11.1179 10.1188C11.1217 10.1703 11.1237 10.2181 11.1237 10.262V11.1182H10.811V9.24539ZM13.8007 10.3508L13.7334 10.1217C13.7023 10.0224 13.6721 9.92026 13.6429 9.81526C13.6156 9.71026 13.5883 9.60621 13.561 9.50312H13.5494C13.5221 9.60812 13.4948 9.71312 13.4675 9.81812C13.4403 9.92121 13.411 10.0224 13.3799 10.1217L13.3127 10.3508H13.8007ZM13.8766 10.6113H13.2338L13.0847 11.1182H12.7399L13.3623 9.24539H13.7597L14.3821 11.1182H14.0257L13.8766 10.6113ZM14.9567 10.1217H15.2284C15.359 10.1217 15.4583 10.0949 15.5265 10.0415C15.5966 9.98803 15.6317 9.90785 15.6317 9.80094C15.6317 9.69212 15.5966 9.61671 15.5265 9.57471C15.4583 9.53271 15.359 9.51171 15.2284 9.51171H14.9567V10.1217ZM15.6609 11.1182L15.2489 10.3851H14.9567V11.1182H14.6177V9.24539H15.2635C15.3629 9.24539 15.4554 9.25494 15.5411 9.27403C15.6268 9.29312 15.7008 9.32462 15.7632 9.36853C15.8255 9.41053 15.8742 9.46685 15.9093 9.53749C15.9463 9.60812 15.9648 9.69594 15.9648 9.80094C15.9648 9.94412 15.9297 10.0596 15.8596 10.1474C15.7914 10.2353 15.6999 10.2983 15.5849 10.3364L16.0408 11.1182H15.6609ZM16.367 9.24539H16.7059V10.0959H16.7147L17.3955 9.24539H17.7725L17.1852 9.97562L17.8718 11.1182H17.4978L16.9806 10.2362L16.7059 10.5713V11.1182H16.367V9.24539ZM18.1105 9.24539H19.2618V9.52603H18.4495V10.0043H19.1362V10.2849H18.4495V10.8376H19.291V11.1182H18.1105V9.24539ZM20.0686 9.52603H19.5163V9.24539H20.9598V9.52603H20.4075V11.1182H20.0686V9.52603ZM12.0181 12.4908H12.661C12.7662 12.4908 12.8626 12.5004 12.9502 12.5195C13.0399 12.5386 13.1168 12.571 13.1811 12.6168C13.2454 12.6627 13.296 12.7228 13.333 12.7973C13.3701 12.8698 13.3886 12.9605 13.3886 13.0693C13.3886 13.1724 13.3701 13.2621 13.333 13.3385C13.296 13.4148 13.2444 13.4788 13.1782 13.5303C13.1139 13.58 13.0369 13.6172 12.9473 13.642C12.8597 13.6649 12.7642 13.6764 12.661 13.6764H12.3571V14.3637H12.0181V12.4908ZM12.6347 13.4101C12.9152 13.4101 13.0554 13.2965 13.0554 13.0693C13.0554 12.9509 13.0204 12.8698 12.9502 12.8259C12.8801 12.7801 12.7749 12.7572 12.6347 12.7572H12.3571V13.4101H12.6347ZM13.7474 12.4908H14.0863V14.083H14.8811V14.3637H13.7474V12.4908ZM16.0265 13.5962L15.9592 13.3671C15.9281 13.2678 15.8979 13.1657 15.8687 13.0607C15.8414 12.9557 15.8141 12.8517 15.7868 12.7486H15.7752C15.7479 12.8536 15.7206 12.9586 15.6933 13.0636C15.6661 13.1667 15.6368 13.2678 15.6057 13.3671L15.5385 13.5962H16.0265ZM16.1024 13.8568H15.4596L15.3105 14.3637H14.9657L15.5881 12.4908H15.9855L16.608 14.3637H16.2515L16.1024 13.8568ZM16.7156 13.433C16.7156 13.2803 16.738 13.1438 16.7828 13.0235C16.8296 12.9013 16.8929 12.7982 16.9728 12.7142C17.0527 12.6302 17.1462 12.5663 17.2533 12.5223C17.3604 12.4784 17.4754 12.4565 17.5981 12.4565C17.715 12.4565 17.8192 12.4803 17.9108 12.5281C18.0043 12.5758 18.0812 12.6312 18.1416 12.6942L17.9517 12.9003C17.903 12.8526 17.8504 12.8154 17.7939 12.7887C17.7393 12.76 17.6751 12.7457 17.601 12.7457C17.5212 12.7457 17.4481 12.7619 17.3819 12.7944C17.3176 12.8249 17.2611 12.8698 17.2124 12.929C17.1656 12.9863 17.1286 13.0569 17.1014 13.1409C17.076 13.2249 17.0634 13.3194 17.0634 13.4244C17.0634 13.6382 17.1101 13.8062 17.2036 13.9284C17.2991 14.0487 17.4277 14.1088 17.5893 14.1088C17.6751 14.1088 17.7491 14.0926 17.8114 14.0601C17.8757 14.0277 17.9351 13.9818 17.9897 13.9227L18.1796 14.126C18.1017 14.2138 18.013 14.2816 17.9137 14.3293C17.8143 14.3751 17.7043 14.398 17.5835 14.398C17.4608 14.398 17.3468 14.377 17.2416 14.335C17.1364 14.293 17.0449 14.231 16.9669 14.1489C16.889 14.0668 16.8277 13.9656 16.7828 13.8453C16.738 13.7251 16.7156 13.5876 16.7156 13.433ZM18.4986 12.4908H19.6499V12.7715H18.8376V13.2497H19.5243V13.5303H18.8376V14.083H19.6791V14.3637H18.4986V12.4908Z" fill="white"/>
<path d="M16.7492 3.76079C16.7262 3.74153 16.6937 3.73748 16.6665 3.75047L16.2501 3.94913L15.8594 3.50765C15.8449 3.49131 15.824 3.48193 15.8019 3.48193C15.7799 3.48193 15.7589 3.49131 15.7444 3.50765L15.3537 3.94913L14.9373 3.75047C14.9101 3.73748 14.8776 3.74153 14.8546 3.76079C14.8316 3.78004 14.8224 3.81083 14.8312 3.8392L15.1203 4.77137C15.1301 4.8028 15.1596 4.82425 15.1931 4.82425H16.4107C16.4442 4.82425 16.4737 4.8028 16.4835 4.77139L16.7726 3.8392C16.7814 3.81083 16.7723 3.78004 16.7492 3.76079ZM16.3543 4.67512H15.2495L15.0275 3.9594L15.3396 4.10829C15.3706 4.12306 15.4078 4.1156 15.4304 4.09009L15.8019 3.67032L16.1734 4.09009C16.196 4.11562 16.2332 4.12306 16.2642 4.10829L16.5763 3.9594L16.3543 4.67512Z" fill="white"/>
<path d="M23.3994 20.0909C23.2782 19.4967 23.2864 19.1734 23.3994 18.7546C23.6865 17.9485 24.0387 17.664 24.763 17.2273C24.8546 17.8387 24.8265 18.1718 24.6656 18.7546C24.521 19.1649 24.3377 19.3946 23.9838 19.8046L23.3994 20.0909Z" fill="#F2CB45"/>
<path d="M25.6352 18.4496C25.355 17.9094 25.274 17.5959 25.2676 17.1627C25.3223 16.3106 25.5834 15.9436 26.1608 15.3318C26.4171 15.8964 26.4816 16.2246 26.4871 16.8283C26.4608 17.2616 26.3472 17.5313 26.1191 18.0195L25.6352 18.4496Z" fill="#F2CB45"/>
<path d="M27.1406 16.0032C26.7212 15.5579 26.5562 15.2779 26.4297 14.8628C26.246 14.0282 26.3953 13.6054 26.781 12.8628C27.1844 13.3378 27.3375 13.6364 27.5103 14.2159C27.6054 14.6399 27.5709 14.9296 27.487 15.4602L27.1406 16.0032Z" fill="#F2CB45"/>
<path d="M28.0981 13.3981C27.5451 13.1271 27.2897 12.9223 27.0216 12.5779C26.5484 11.861 26.5354 11.4138 26.6281 10.5854C27.1769 10.8899 27.428 11.116 27.7987 11.5982C28.0406 11.9618 28.1131 12.2447 28.2261 12.7702L28.0981 13.3981Z" fill="#F2CB45"/>
<path d="M28.096 10.9138C27.5133 10.711 27.2342 10.5383 26.9252 10.2285C26.3663 9.57366 26.2977 9.1314 26.2866 8.2981C26.8691 8.53463 27.1465 8.72904 27.5745 9.16322C27.8599 9.49523 27.9672 9.76733 28.1447 10.2753L28.096 10.9138Z" fill="#F2CB45"/>
<path d="M27.6151 8.21016C26.9978 8.1774 26.6803 8.08925 26.2944 7.87794C25.5689 7.40502 25.3755 6.99991 25.1238 6.20386C25.7509 6.26898 26.0731 6.37841 26.6092 6.67597C26.9787 6.91516 27.1603 7.14637 27.4774 7.5842L27.6151 8.21016Z" fill="#F2CB45"/>
<path d="M26.5176 5.724C25.9076 5.82352 25.578 5.8051 25.1545 5.68099C24.3418 5.37384 24.0628 5.01965 23.6409 4.29618C24.2674 4.22621 24.6061 4.26441 25.1954 4.44073C25.6092 4.59546 25.8375 4.78252 26.2443 5.14236L26.5176 5.724Z" fill="#F2CB45"/>
<path d="M24.7367 3.37657C24.1188 3.39977 23.7943 3.3407 23.3903 3.16516C22.6235 2.75981 22.3925 2.37394 22.0671 1.604C22.6977 1.61218 23.0287 1.69202 23.5905 1.93987C23.9904 2.12581 24.223 2.30816 24.5406 2.76575C24.6497 2.93987 24.6843 3.09019 24.7367 3.37657Z" fill="#F2CB45"/>
<path d="M23.2434 20.477C23.7341 20.1083 24.0337 19.9728 24.4672 19.8873C25.3319 19.7841 25.7478 19.9684 26.4672 20.4126C25.9479 20.7629 25.6305 20.8851 25.0259 21.0008C24.3752 21.0905 24.0628 21.0342 23.7635 20.8645C23.5222 20.7154 23.4057 20.6306 23.2434 20.477Z" fill="#F2CB45"/>
<path d="M25.5811 18.759C26.0718 18.3902 26.3714 18.2548 26.8048 18.1693C27.6696 18.0661 28.0855 18.2504 28.8049 18.6946C28.2855 19.0449 27.9682 19.1672 27.3635 19.2829C26.7129 19.3726 26.4004 19.3163 26.1012 19.1466C25.8598 18.9974 25.7433 18.9126 25.5811 18.759Z" fill="#F2CB45"/>
<path d="M27.1733 16.59C27.4139 16.0317 27.606 15.7688 27.9395 15.4846C28.6392 14.9759 29.0937 14.9345 29.9433 14.9721C29.6684 15.5283 29.4541 15.7883 28.987 16.1818C28.4667 16.575 28.1667 16.6775 27.8209 16.6749C27.5359 16.6622 27.3917 16.6449 27.1733 16.59Z" fill="#F2CB45"/>
<path d="M28.1541 13.9301C28.306 13.3427 28.4556 13.0544 28.7418 12.7242C29.3554 12.1181 29.7984 12.0102 30.6441 11.9221C30.4576 12.5125 30.2858 12.8011 29.8843 13.2591C29.4302 13.7245 29.1495 13.8701 28.8072 13.9185C28.5236 13.948 28.3785 13.9522 28.1541 13.9301Z" fill="#F2CB45"/>
<path d="M28.3571 11.3102C28.2638 10.7111 28.2869 10.3885 28.4194 9.97519C28.7438 9.18278 29.1088 8.91433 29.8526 8.5105C29.9157 9.12538 29.8721 9.45682 29.6843 10.0318C29.4511 10.6338 29.2502 10.875 28.9543 11.0502C28.7046 11.1857 28.5725 11.2449 28.3571 11.3102Z" fill="#F2CB45"/>
<path d="M28.0742 8.63985C27.8516 8.07446 27.8034 7.75451 27.8422 7.32298C27.985 6.48077 28.2829 6.14167 28.9207 5.59058C29.117 6.17783 29.1472 6.5107 29.0899 7.11182C28.9941 7.74882 28.8509 8.02677 28.6004 8.26021C28.3863 8.44509 28.2704 8.53067 28.0742 8.63985Z" fill="#F2CB45"/>
<path d="M27.1306 6.09055C26.7496 5.61328 26.6084 5.32096 26.517 4.89716C26.4032 4.05069 26.5871 3.64126 27.0334 2.93188C27.3958 3.43755 27.5237 3.74733 27.6476 4.33873C27.7456 4.97543 27.6913 5.2822 27.521 5.57708C27.3712 5.81511 27.2857 5.93009 27.1306 6.09055Z" fill="#F2CB45"/>
<path d="M25.8721 4.34306C25.4352 3.91437 25.2589 3.64087 25.1159 3.23099C24.8987 2.40417 25.031 1.97599 25.3865 1.21899C25.8086 1.67807 25.9738 1.97046 26.1696 2.54286C26.3453 3.16333 26.3291 3.47429 26.1965 3.78717C26.0771 4.04115 26.0063 4.16541 25.8721 4.34306Z" fill="#F2CB45"/>
<path d="M8.48283 20.0909C8.60396 19.4967 8.59578 19.1734 8.48283 18.7546C8.19573 17.9485 7.84348 17.664 7.11919 17.2273C7.02767 17.8387 7.05575 18.1718 7.2166 18.7546C7.36108 19.1649 7.54451 19.3946 7.89842 19.8046L8.48283 20.0909Z" fill="#F2CB45"/>
<path d="M6.24711 18.4496C6.52718 17.9094 6.60824 17.5959 6.61463 17.1627C6.55983 16.3106 6.29887 15.9436 5.72148 15.3318C5.4652 15.8964 5.40064 16.2246 5.39526 16.8283C5.42154 17.2616 5.53502 17.5313 5.76308 18.0195L6.24711 18.4496Z" fill="#F2CB45"/>
<path d="M4.7418 16.0032C5.16127 15.5579 5.32627 15.2779 5.45266 14.8628C5.63644 14.0282 5.48716 13.6054 5.10137 12.8628C4.69802 13.3378 4.54483 13.6364 4.37208 14.2159C4.27711 14.6399 4.31145 14.9296 4.39539 15.4602L4.7418 16.0032Z" fill="#F2CB45"/>
<path d="M3.78448 13.3981C4.33755 13.1271 4.593 12.9223 4.86107 12.5779C5.33425 11.861 5.34725 11.4138 5.25452 10.5854C4.70577 10.8899 4.45471 11.116 4.08392 11.5982C3.84199 11.9618 3.76952 12.2447 3.65649 12.7702L3.78448 13.3981Z" fill="#F2CB45"/>
<path d="M3.78637 10.9138C4.36907 10.711 4.64811 10.5383 4.95707 10.2285C5.51598 9.57366 5.58459 9.1314 5.59574 8.2981C5.01317 8.53463 4.73581 8.72904 4.30774 9.16322C4.02233 9.49523 3.91517 9.76733 3.73755 10.2753L3.78637 10.9138Z" fill="#F2CB45"/>
<path d="M4.26709 8.21016C4.88456 8.1774 5.20208 8.08925 5.58793 7.87794C6.31327 7.40502 6.5069 6.99991 6.75845 6.20386C6.13138 6.26898 5.80919 6.37841 5.27314 6.67597C4.90346 6.91516 4.72204 7.14637 4.40486 7.5842L4.26709 8.21016Z" fill="#F2CB45"/>
<path d="M5.36475 5.724C5.9747 5.82352 6.30419 5.8051 6.72766 5.68099C7.54054 5.37384 7.81937 5.01965 8.24141 4.29618C7.61488 4.22621 7.27613 4.26441 6.68691 4.44073C6.27304 4.59546 6.04467 4.78252 5.63798 5.14236L5.36475 5.724Z" fill="#F2CB45"/>
<path d="M7.14575 3.37657C7.76365 3.39977 8.08812 3.3407 8.49221 3.16516C9.25896 2.75981 9.4899 2.37394 9.8153 1.604C9.18476 1.61218 8.85365 1.69202 8.29189 1.93987C7.89199 2.12581 7.65932 2.30816 7.34182 2.76575C7.23264 2.93987 7.19806 3.09019 7.14575 3.37657Z" fill="#F2CB45"/>
<path d="M8.63897 20.477C8.14825 20.1083 7.84858 19.9728 7.41526 19.8873C6.55044 19.7841 6.13449 19.9684 5.41504 20.4126C5.93455 20.7629 6.2519 20.8851 6.85654 21.0008C7.50717 21.0905 7.81966 21.0342 8.11888 20.8645C8.36028 20.7154 8.47675 20.6306 8.63897 20.477Z" fill="#F2CB45"/>
<path d="M6.30132 18.759C5.81061 18.3902 5.51094 18.2548 5.07761 18.1693C4.2128 18.0661 3.79685 18.2504 3.07739 18.6946C3.5969 19.0449 3.91426 19.1672 4.51889 19.2829C5.16952 19.3726 5.48201 19.3163 5.78123 19.1466C6.02263 18.9974 6.13911 18.9126 6.30132 18.759Z" fill="#F2CB45"/>
<path d="M4.70888 16.59C4.46836 16.0317 4.27622 15.7688 3.94265 15.4846C3.24297 14.9759 2.78847 14.9345 1.93896 14.9721C2.21384 15.5283 2.42801 15.7883 2.89523 16.1818C3.41555 16.575 3.71555 16.6775 4.06127 16.6749C4.34633 16.6622 4.49041 16.6449 4.70888 16.59Z" fill="#F2CB45"/>
<path d="M3.72824 13.9301C3.57616 13.3427 3.42659 13.0544 3.14048 12.7242C2.52687 12.1181 2.08389 12.0102 1.23828 11.9221C1.42463 12.5125 1.59643 12.8011 1.9979 13.2591C2.45193 13.7245 2.73278 13.8701 3.07495 13.9185C3.35872 13.948 3.50381 13.9522 3.72824 13.9301Z" fill="#F2CB45"/>
<path d="M3.52498 11.3102C3.61831 10.7111 3.59511 10.3885 3.46276 9.97519C3.13843 9.18278 2.7733 8.91433 2.02945 8.5105C1.96649 9.12538 2.01004 9.45682 2.19785 10.0318C2.4311 10.6338 2.63194 10.875 2.92785 11.0502C3.17751 11.1857 3.30949 11.2449 3.52498 11.3102Z" fill="#F2CB45"/>
<path d="M3.80819 8.63985C4.03073 8.07446 4.07881 7.75451 4.04024 7.32298C3.89729 6.48077 3.59957 6.14167 2.96168 5.59058C2.76534 6.17783 2.73516 6.5107 2.79247 7.11182C2.88823 7.74882 3.03146 8.02677 3.28202 8.26021C3.49613 8.44509 3.61206 8.53067 3.80819 8.63985Z" fill="#F2CB45"/>
<path d="M4.75187 6.09055C5.13292 5.61328 5.27408 5.32096 5.36552 4.89716C5.47929 4.05069 5.29537 3.64126 4.84909 2.93188C4.4866 3.43755 4.35873 3.74733 4.23476 4.33873C4.13689 4.97543 4.19124 5.2822 4.36148 5.57708C4.5113 5.81511 4.59674 5.93009 4.75187 6.09055Z" fill="#F2CB45"/>
<path d="M6.01004 4.34306C6.44709 3.91437 6.62323 3.64087 6.76622 3.23099C6.98343 2.40417 6.85129 1.97599 6.49567 1.21899C6.07353 1.67807 5.90843 1.97046 5.71252 2.54286C5.53692 3.16333 5.55307 3.47429 5.68575 3.78717C5.80515 4.04115 5.8758 4.16541 6.01004 4.34306Z" fill="#F2CB45"/>
</g>
<g clip-path="url(#clip1)">
<path d="M58.0748 16.08L58.4472 16.35L58.3063 15.91L58.6787 15.65H58.2258L58.0748 15.2L57.9239 15.65H57.4709L57.8434 15.91L57.7024 16.35L58.0748 16.08Z" fill="white"/>
<path d="M59.6852 16.08L60.0576 16.35L59.9167 15.91L60.2891 15.65H59.8362L59.6852 15.2L59.5342 15.65H59.0813L59.4537 15.91L59.3128 16.35L59.6852 16.08Z" fill="white"/>
<path d="M61.2955 16.08L61.6679 16.35L61.527 15.91L61.8994 15.65H61.4465L61.2955 15.2L61.1446 15.65H60.6917L61.0641 15.91L60.9231 16.35L61.2955 16.08Z" fill="white"/>
<path d="M62.9059 16.08L63.2783 16.35L63.1374 15.91L63.5098 15.65H63.0569L62.9059 15.2L62.7549 15.65H62.302L62.6744 15.91L62.5335 16.35L62.9059 16.08Z" fill="white"/>
<path d="M64.5163 16.08L64.8887 16.35L64.7477 15.91L65.1202 15.65H64.6672L64.5163 15.2L64.3653 15.65H63.9124L64.2848 15.91L64.1438 16.35L64.5163 16.08Z" fill="white"/>
<path d="M59.3576 19.0001V18.9119C59.4446 18.8255 59.5218 18.7475 59.5895 18.6779C59.6571 18.6083 59.7139 18.5441 59.7598 18.4853C59.8057 18.4253 59.8407 18.3707 59.8649 18.3215C59.889 18.2711 59.9011 18.2225 59.9011 18.1757C59.9011 18.1097 59.883 18.0557 59.8467 18.0137C59.8105 17.9717 59.7556 17.9507 59.6819 17.9507C59.6336 17.9507 59.5889 17.9645 59.5478 17.9921C59.5068 18.0185 59.4693 18.0509 59.4355 18.0893L59.3503 18.0047C59.3987 17.9519 59.45 17.9099 59.5043 17.8787C59.5587 17.8463 59.6239 17.8301 59.7 17.8301C59.8075 17.8301 59.892 17.8613 59.9536 17.9237C60.0152 17.9849 60.046 18.0665 60.046 18.1685C60.046 18.2225 60.034 18.2771 60.0098 18.3323C59.9868 18.3863 59.9542 18.4427 59.912 18.5015C59.8709 18.5591 59.8214 18.6197 59.7634 18.6833C59.7066 18.7457 59.6438 18.8123 59.575 18.8831C59.6064 18.8807 59.639 18.8783 59.6728 18.8759C59.7066 18.8735 59.7386 18.8723 59.7688 18.8723H60.104V19.0001H59.3576ZM60.7092 19.0217C60.5921 19.0217 60.5009 18.9701 60.4357 18.8669C60.3705 18.7637 60.3379 18.6155 60.3379 18.4223C60.3379 18.2291 60.3705 18.0821 60.4357 17.9813C60.5009 17.8805 60.5921 17.8301 60.7092 17.8301C60.8252 17.8301 60.9158 17.8805 60.981 17.9813C61.0462 18.0821 61.0788 18.2291 61.0788 18.4223C61.0788 18.6155 61.0462 18.7637 60.981 18.8669C60.9158 18.9701 60.8252 19.0217 60.7092 19.0217ZM60.7092 18.9029C60.7431 18.9029 60.7733 18.8939 60.7998 18.8759C60.8276 18.8567 60.8512 18.8279 60.8705 18.7895C60.891 18.7499 60.9067 18.7001 60.9176 18.6401C60.9285 18.5789 60.9339 18.5063 60.9339 18.4223C60.9339 18.3383 60.9285 18.2663 60.9176 18.2063C60.9067 18.1463 60.891 18.0977 60.8705 18.0605C60.8512 18.0221 60.8276 17.9939 60.7998 17.9759C60.7733 17.9579 60.7431 17.9489 60.7092 17.9489C60.6754 17.9489 60.6446 17.9579 60.6169 17.9759C60.5891 17.9939 60.5649 18.0221 60.5444 18.0605C60.5251 18.0977 60.51 18.1463 60.4991 18.2063C60.4882 18.2663 60.4828 18.3383 60.4828 18.4223C60.4828 18.5903 60.5033 18.7127 60.5444 18.7895C60.5867 18.8651 60.6416 18.9029 60.7092 18.9029ZM61.3743 19.0001V18.8777H61.6388V18.0317H61.4286V17.9363C61.4818 17.9267 61.5276 17.9153 61.5663 17.9021C61.6062 17.8877 61.6418 17.8709 61.6732 17.8517H61.7873V18.8777H62.0265V19.0001H61.3743ZM62.6299 18.4421C62.6685 18.4421 62.709 18.4301 62.7513 18.4061C62.7947 18.3821 62.8352 18.3431 62.8726 18.2891C62.863 18.1763 62.8364 18.0911 62.7929 18.0335C62.7495 17.9759 62.6909 17.9471 62.6172 17.9471C62.5894 17.9471 62.5628 17.9531 62.5375 17.9651C62.5133 17.9771 62.4922 17.9945 62.4741 18.0173C62.456 18.0389 62.4415 18.0653 62.4306 18.0965C62.4209 18.1277 62.4161 18.1619 62.4161 18.1991C62.4161 18.2747 62.4336 18.3341 62.4686 18.3773C62.5037 18.4205 62.5574 18.4421 62.6299 18.4421ZM62.5755 19.0217C62.5139 19.0217 62.4596 19.0103 62.4125 18.9875C62.3666 18.9647 62.3279 18.9359 62.2965 18.9011L62.3799 18.8075C62.404 18.8351 62.4324 18.8573 62.465 18.8741C62.4988 18.8909 62.5339 18.8993 62.5701 18.8993C62.6112 18.8993 62.6498 18.8909 62.686 18.8741C62.7223 18.8573 62.7543 18.8297 62.7821 18.7913C62.8098 18.7517 62.8322 18.7007 62.8491 18.6383C62.866 18.5759 62.8751 18.4985 62.8763 18.4061C62.84 18.4517 62.7978 18.4877 62.7495 18.5141C62.7011 18.5405 62.6528 18.5537 62.6045 18.5537C62.5043 18.5537 62.4246 18.5243 62.3654 18.4655C62.3062 18.4067 62.2766 18.3179 62.2766 18.1991C62.2766 18.1439 62.2857 18.0941 62.3038 18.0497C62.3219 18.0041 62.346 17.9651 62.3762 17.9327C62.4076 17.9003 62.4439 17.8751 62.4849 17.8571C62.5272 17.8391 62.5713 17.8301 62.6172 17.8301C62.674 17.8301 62.7265 17.8415 62.7748 17.8643C62.8243 17.8871 62.8666 17.9219 62.9016 17.9687C62.9379 18.0143 62.9656 18.0719 62.985 18.1415C63.0055 18.2099 63.0158 18.2903 63.0158 18.3827C63.0158 18.4979 63.0037 18.5963 62.9795 18.6779C62.9554 18.7583 62.9228 18.8243 62.8817 18.8759C62.8406 18.9263 62.7935 18.9635 62.7404 18.9875C62.6885 19.0103 62.6335 19.0217 62.5755 19.0217Z" fill="white"/>
<path d="M58.2155 5.2379H58.8466C58.9493 5.2379 59.0429 5.2469 59.1274 5.2649C59.214 5.2809 59.2885 5.3079 59.3509 5.3459C59.4153 5.3819 59.4646 5.4309 59.4988 5.4929C59.5351 5.5549 59.5532 5.6309 59.5532 5.7209C59.5532 5.8149 59.525 5.9019 59.4686 5.9819C59.4143 6.0619 59.3297 6.1169 59.215 6.1469V6.1589C59.3579 6.1829 59.4666 6.2339 59.5411 6.3119C59.6176 6.3879 59.6558 6.4919 59.6558 6.6239C59.6558 6.7219 59.6367 6.8069 59.5985 6.8789C59.5602 6.9509 59.5069 7.0109 59.4384 7.0589C59.372 7.1069 59.2925 7.1429 59.1999 7.1669C59.1073 7.1889 59.0067 7.1999 58.8979 7.1999H58.2155V5.2379ZM58.8164 6.0509C58.9553 6.0509 59.055 6.0259 59.1154 5.9759C59.1778 5.9259 59.209 5.8549 59.209 5.7629C59.209 5.6729 59.1767 5.6079 59.1123 5.5679C59.0479 5.5279 58.9513 5.5079 58.8225 5.5079H58.5658V6.0509H58.8164ZM58.8617 6.9299C59.0067 6.9299 59.1184 6.9029 59.1969 6.8489C59.2754 6.7949 59.3146 6.7119 59.3146 6.5999C59.3146 6.4979 59.2764 6.4229 59.1999 6.3749C59.1234 6.3249 59.0107 6.2999 58.8617 6.2999H58.5658V6.9299H58.8617ZM60.0172 5.2379H61.2069V5.5319H60.3675V6.0329H61.077V6.3269H60.3675V6.9059H61.2371V7.1999H60.0172V5.2379ZM61.7114 6.7109C61.7819 6.7769 61.8624 6.8309 61.953 6.8729C62.0435 6.9129 62.1341 6.9329 62.2247 6.9329C62.3374 6.9329 62.423 6.9099 62.4814 6.8639C62.5397 6.8179 62.5689 6.7569 62.5689 6.6809C62.5689 6.6409 62.5609 6.6069 62.5448 6.5789C62.5307 6.5509 62.5095 6.5269 62.4814 6.5069C62.4552 6.4849 62.423 6.4649 62.3847 6.4469C62.3485 6.4289 62.3083 6.4109 62.264 6.3929L61.9922 6.2759C61.9439 6.2559 61.8956 6.2309 61.8473 6.2009C61.801 6.1709 61.7587 6.1349 61.7205 6.0929C61.6822 6.0509 61.651 6.0019 61.6269 5.9459C61.6047 5.8899 61.5936 5.8259 61.5936 5.7539C61.5936 5.6759 61.6097 5.6039 61.642 5.5379C61.6762 5.4699 61.7225 5.4109 61.7808 5.3609C61.8392 5.3109 61.9087 5.2719 61.9892 5.2439C62.0717 5.2159 62.1613 5.2019 62.2579 5.2019C62.3727 5.2019 62.4834 5.2249 62.5901 5.2709C62.6968 5.3149 62.7883 5.3749 62.8648 5.4509L62.6867 5.6729C62.6223 5.6209 62.5558 5.5799 62.4874 5.5499C62.419 5.5199 62.3425 5.5049 62.2579 5.5049C62.1633 5.5049 62.0878 5.5259 62.0315 5.5679C61.9751 5.6079 61.9469 5.6639 61.9469 5.7359C61.9469 5.7739 61.955 5.8069 61.9711 5.8349C61.9892 5.8609 62.0123 5.8849 62.0405 5.9069C62.0707 5.9269 62.1049 5.9459 62.1432 5.9639C62.1814 5.9799 62.2207 5.9959 62.2609 6.0119L62.5297 6.1229C62.5881 6.1469 62.6414 6.1749 62.6897 6.2069C62.738 6.2389 62.7793 6.2759 62.8135 6.3179C62.8497 6.3599 62.8779 6.4089 62.8981 6.4649C62.9182 6.5189 62.9283 6.5819 62.9283 6.6539C62.9283 6.7339 62.9121 6.8089 62.8799 6.8789C62.8477 6.9489 62.8004 7.0109 62.738 7.0649C62.6776 7.1169 62.6032 7.1589 62.5146 7.1909C62.428 7.2209 62.3294 7.2359 62.2187 7.2359C62.0858 7.2359 61.957 7.2109 61.8322 7.1609C61.7094 7.1109 61.6007 7.0399 61.5061 6.9479L61.7114 6.7109ZM63.6269 5.5319H63.0562V5.2379H64.5479V5.5319H63.9772V7.1999H63.6269V5.5319ZM56.1382 8.6379H56.5247L56.881 9.6039L57.0108 9.9759H57.0229L57.1497 9.6039L57.5 8.6379H57.8865V10.5999H57.5573V9.7029C57.5573 9.6569 57.5583 9.6069 57.5604 9.5529C57.5644 9.4989 57.5684 9.4449 57.5724 9.3909C57.5765 9.3349 57.5815 9.2809 57.5875 9.2289C57.5936 9.1749 57.5986 9.1249 57.6026 9.0789H57.5906L57.4305 9.5259L57.0893 10.4169H56.9263L56.5851 9.5259L56.4281 9.0789H56.416C56.42 9.1249 56.424 9.1749 56.4281 9.2289C56.4341 9.2809 56.4391 9.3349 56.4432 9.3909C56.4492 9.4449 56.4532 9.4989 56.4552 9.5529C56.4593 9.6069 56.4613 9.6569 56.4613 9.7029V10.5999H56.1382V8.6379ZM59.2275 9.7959L59.158 9.5559C59.1258 9.4519 59.0946 9.3449 59.0644 9.2349C59.0362 9.1249 59.008 9.0159 58.9799 8.9079H58.9678C58.9396 9.0179 58.9114 9.1279 58.8832 9.2379C58.8551 9.3459 58.8249 9.4519 58.7926 9.5559L58.7232 9.7959H59.2275ZM59.306 10.0689H58.6417L58.4877 10.5999H58.1314L58.7745 8.6379H59.1852L59.8283 10.5999H59.46L59.306 10.0689ZM60.422 9.5559H60.7028C60.8377 9.5559 60.9404 9.5279 61.0108 9.4719C61.0833 9.4159 61.1195 9.3319 61.1195 9.2199C61.1195 9.1059 61.0833 9.0269 61.0108 8.9829C60.9404 8.9389 60.8377 8.9169 60.7028 8.9169H60.422V9.5559ZM61.1497 10.5999L60.724 9.8319H60.422V10.5999H60.0718V8.6379H60.7391C60.8417 8.6379 60.9373 8.6479 61.0259 8.6679C61.1145 8.6879 61.191 8.7209 61.2554 8.7669C61.3198 8.8109 61.3701 8.8699 61.4064 8.9439C61.4446 9.0179 61.4637 9.1099 61.4637 9.2199C61.4637 9.3699 61.4275 9.4909 61.355 9.5829C61.2846 9.6749 61.19 9.7409 61.0712 9.7809L61.5422 10.5999H61.1497ZM61.8793 8.6379H62.2296V9.5289H62.2386L62.9422 8.6379H63.3317L62.7248 9.4029L63.4344 10.5999H63.0479L62.5134 9.6759L62.2296 10.0269V10.5999H61.8793V8.6379ZM63.681 8.6379H64.8707V8.9319H64.0312V9.4329H64.7408V9.7269H64.0312V10.3059H64.9009V10.5999H63.681V8.6379ZM65.7043 8.9319H65.1336V8.6379H66.6253V8.9319H66.0546V10.5999H65.7043V8.9319ZM57.3855 12.0379H58.0498C58.1585 12.0379 58.2581 12.0479 58.3487 12.0679C58.4413 12.0879 58.5208 12.1219 58.5872 12.1699C58.6537 12.2179 58.706 12.2809 58.7443 12.3589C58.7825 12.4349 58.8016 12.5299 58.8016 12.6439C58.8016 12.7519 58.7825 12.8459 58.7443 12.9259C58.706 13.0059 58.6527 13.0729 58.5842 13.1269C58.5178 13.1789 58.4383 13.2179 58.3457 13.2439C58.2551 13.2679 58.1565 13.2799 58.0498 13.2799H57.7358V13.9999H57.3855V12.0379ZM58.0226 13.0009C58.3125 13.0009 58.4574 12.8819 58.4574 12.6439C58.4574 12.5199 58.4212 12.4349 58.3487 12.3889C58.2762 12.3409 58.1675 12.3169 58.0226 12.3169H57.7358V13.0009H58.0226ZM59.1724 12.0379H59.5227V13.7059H60.344V13.9999H59.1724V12.0379ZM61.5275 13.1959L61.458 12.9559C61.4258 12.8519 61.3946 12.7449 61.3644 12.6349C61.3362 12.5249 61.308 12.4159 61.2799 12.3079H61.2678C61.2396 12.4179 61.2114 12.5279 61.1832 12.6379C61.1551 12.7459 61.1249 12.8519 61.0926 12.9559L61.0232 13.1959H61.5275ZM61.606 13.4689H60.9417L60.7877 13.9999H60.4314L61.0745 12.0379H61.4852L62.1283 13.9999H61.76L61.606 13.4689ZM62.2396 13.0249C62.2396 12.8649 62.2628 12.7219 62.3091 12.5959C62.3574 12.4679 62.4228 12.3599 62.5053 12.2719C62.5879 12.1839 62.6845 12.1169 62.7952 12.0709C62.9059 12.0249 63.0247 12.0019 63.1515 12.0019C63.2723 12.0019 63.38 12.0269 63.4746 12.0769C63.5712 12.1269 63.6507 12.1849 63.7131 12.2509L63.5168 12.4669C63.4665 12.4169 63.4122 12.3779 63.3538 12.3499C63.2974 12.3199 63.231 12.3049 63.1545 12.3049C63.072 12.3049 62.9965 12.3219 62.928 12.3559C62.8616 12.3879 62.8032 12.4349 62.7529 12.4969C62.7046 12.5569 62.6664 12.6309 62.6382 12.7189C62.612 12.8069 62.5989 12.9059 62.5989 13.0159C62.5989 13.2399 62.6472 13.4159 62.7439 13.5439C62.8425 13.6699 62.9754 13.7329 63.1424 13.7329C63.231 13.7329 63.3075 13.7159 63.3719 13.6819C63.4383 13.6479 63.4997 13.5999 63.5561 13.5379L63.7524 13.7509C63.6718 13.8429 63.5803 13.9139 63.4776 13.9639C63.3749 14.0119 63.2612 14.0359 63.1364 14.0359C63.0096 14.0359 62.8918 14.0139 62.7831 13.9699C62.6744 13.9259 62.5798 13.8609 62.4993 13.7749C62.4188 13.6889 62.3554 13.5829 62.3091 13.4569C62.2628 13.3309 62.2396 13.1869 62.2396 13.0249ZM64.082 12.0379H65.2717V12.3319H64.4323V12.8329H65.1419V13.1269H64.4323V13.7059H65.3019V13.9999H64.082V12.0379Z" fill="white"/>
<path d="M62.2745 2.89224C62.2507 2.87206 62.2171 2.86782 62.189 2.88142L61.7587 3.08954L61.355 2.62704C61.34 2.60992 61.3183 2.6001 61.2956 2.6001C61.2728 2.6001 61.2511 2.60992 61.2362 2.62704L60.8324 3.08954L60.4021 2.88142C60.374 2.86782 60.3404 2.87206 60.3167 2.89224C60.2929 2.9124 60.2834 2.94466 60.2925 2.97438L60.5913 3.95094C60.6013 3.98386 60.6319 4.00634 60.6665 4.00634H61.9246C61.9592 4.00634 61.9898 3.98386 61.9998 3.95096L62.2986 2.97438C62.3077 2.94466 62.2982 2.9124 62.2745 2.89224ZM61.8663 3.8501H60.7248L60.4954 3.1003L60.8178 3.25628C60.8499 3.27176 60.8883 3.26394 60.9117 3.23722L61.2956 2.79746L61.6795 3.23722C61.7028 3.26396 61.7413 3.27176 61.7733 3.25628L62.0958 3.1003L61.8663 3.8501Z" fill="white"/>
<path d="M69.1462 20C69.021 19.3774 69.0294 19.0387 69.1462 18.6C69.4429 17.7555 69.8068 17.4575 70.5553 17C70.6499 17.6405 70.6209 17.9894 70.4546 18.6C70.3053 19.0299 70.1158 19.2705 69.7501 19.7L69.1462 20Z" fill="white"/>
<path d="M71.4565 18.2805C71.167 17.7145 71.0833 17.386 71.0767 16.9323C71.1332 16.0396 71.403 15.6551 71.9996 15.0142C72.2645 15.6057 72.3312 15.9494 72.3368 16.5819C72.3096 17.0359 72.1923 17.3184 71.9565 17.8299L71.4565 18.2805Z" fill="white"/>
<path d="M73.0121 15.7177C72.5787 15.2512 72.4082 14.9578 72.2776 14.5229C72.0877 13.6486 72.2419 13.2058 72.6405 12.4277C73.0574 12.9254 73.2156 13.2381 73.3942 13.8453C73.4924 14.2895 73.4568 14.593 73.37 15.1489L73.0121 15.7177Z" fill="white"/>
<path d="M74.0014 12.9886C73.4299 12.7046 73.166 12.4901 72.889 12.1293C72.4001 11.3783 72.3866 10.9098 72.4824 10.042C73.0495 10.361 73.3089 10.5979 73.692 11.103C73.942 11.4839 74.0169 11.7803 74.1337 12.3307L74.0014 12.9886Z" fill="white"/>
<path d="M73.9993 10.3861C73.3972 10.1736 73.1088 9.99267 72.7895 9.66813C72.212 8.98205 72.1411 8.51873 72.1296 7.64575C72.7315 7.89355 73.0182 8.09721 73.4604 8.55207C73.7553 8.89989 73.8662 9.18495 74.0496 9.71711L73.9993 10.3861Z" fill="white"/>
<path d="M73.5024 7.5535C72.8645 7.51918 72.5363 7.42684 72.1376 7.20546C71.3879 6.71002 71.1881 6.28562 70.928 5.45166C71.576 5.51988 71.9089 5.63452 72.4629 5.94626C72.8447 6.19684 73.0324 6.43906 73.3601 6.89774L73.5024 7.5535Z" fill="white"/>
<path d="M72.3683 4.94884C71.7381 5.0531 71.3975 5.0338 70.9598 4.90378C70.12 4.582 69.8318 4.21094 69.3958 3.45302C70.0431 3.37972 70.3932 3.41974 71.0021 3.60446C71.4297 3.76656 71.6656 3.96252 72.0859 4.3395L72.3683 4.94884Z" fill="white"/>
<path d="M70.5281 2.48955C69.8896 2.51385 69.5542 2.45197 69.1367 2.26807C68.3444 1.84341 68.1057 1.43917 67.7695 0.632568C68.4211 0.64113 68.7631 0.724778 69.3437 0.984428C69.7569 1.17922 69.9973 1.37026 70.3254 1.84963C70.4381 2.03205 70.474 2.18953 70.5281 2.48955Z" fill="white"/>
<path d="M68.9849 20.4046C69.4919 20.0184 69.8015 19.8764 70.2494 19.7868C71.143 19.6787 71.5727 19.8718 72.3161 20.3372C71.7795 20.7042 71.4516 20.8322 70.8267 20.9534C70.1544 21.0474 69.8315 20.9884 69.5223 20.8106C69.2729 20.6544 69.1525 20.5656 68.9849 20.4046Z" fill="white"/>
<path d="M71.4006 18.6045C71.9077 18.2182 72.2173 18.0763 72.6652 17.9868C73.5588 17.8787 73.9885 18.0717 74.7319 18.5372C74.1953 18.9041 73.8674 19.0322 73.2425 19.1534C72.5702 19.2473 72.2473 19.1884 71.9381 19.0106C71.6887 18.8543 71.5683 18.7654 71.4006 18.6045Z" fill="white"/>
<path d="M73.0459 16.3323C73.2945 15.7475 73.493 15.472 73.8376 15.1742C74.5607 14.6413 75.0303 14.598 75.9082 14.6374C75.6241 15.22 75.4027 15.4925 74.92 15.9047C74.3823 16.3166 74.0723 16.424 73.715 16.4213C73.4205 16.408 73.2716 16.3899 73.0459 16.3323Z" fill="white"/>
<path d="M74.0593 13.5457C74.2163 12.9304 74.3709 12.6283 74.6666 12.2824C75.3007 11.6475 75.7585 11.5344 76.6323 11.4421C76.4397 12.0606 76.2621 12.363 75.8473 12.8428C75.378 13.3304 75.088 13.4829 74.7343 13.5336C74.4412 13.5645 74.2912 13.5688 74.0593 13.5457Z" fill="white"/>
<path d="M74.2691 10.8009C74.1727 10.1733 74.1966 9.83536 74.3335 9.40236C74.6687 8.57222 75.0459 8.29098 75.8145 7.86792C75.8797 8.51208 75.8346 8.8593 75.6406 9.46168C75.3996 10.0923 75.1921 10.345 74.8863 10.5286C74.6282 10.6705 74.4917 10.7325 74.2691 10.8009Z" fill="white"/>
<path d="M73.9769 8.00356C73.7468 7.41124 73.6971 7.07606 73.7371 6.62398C73.8847 5.74166 74.1925 5.38642 74.8515 4.80908C75.0545 5.4243 75.0857 5.77302 75.0265 6.40276C74.9274 7.0701 74.7795 7.36128 74.5206 7.60584C74.2994 7.79952 74.1796 7.88918 73.9769 8.00356Z" fill="white"/>
<path d="M73.0018 5.33301C72.608 4.83301 72.4621 4.52677 72.3677 4.08279C72.2501 3.19601 72.4402 2.76709 72.9013 2.02393C73.2758 2.55367 73.408 2.87821 73.536 3.49777C73.6373 4.16479 73.5811 4.48617 73.4052 4.79509C73.2504 5.04445 73.162 5.16491 73.0018 5.33301Z" fill="white"/>
<path d="M71.7011 3.50232C71.2496 3.05322 71.0675 2.7667 70.9197 2.3373C70.6953 1.47111 70.8319 1.02253 71.1993 0.229492C71.6355 0.710428 71.8062 1.01674 72.0085 1.6164C72.1901 2.26642 72.1734 2.59218 72.0363 2.91996C71.9129 3.18604 71.8398 3.31622 71.7011 3.50232Z" fill="white"/>
<path d="M53.7324 20C53.8576 19.3774 53.8491 19.0387 53.7324 18.6C53.4357 17.7555 53.0717 17.4575 52.3233 17C52.2287 17.6405 52.2578 17.9894 52.424 18.6C52.5733 19.0299 52.7628 19.2705 53.1285 19.7L53.7324 20Z" fill="white"/>
<path d="M51.4222 18.2805C51.7116 17.7145 51.7954 17.386 51.802 16.9323C51.7454 16.0396 51.4757 15.6551 50.8791 15.0142C50.6143 15.6057 50.5475 15.9494 50.542 16.5819C50.5691 17.0359 50.6864 17.3184 50.9221 17.8299L51.4222 18.2805Z" fill="white"/>
<path d="M49.8666 15.7177C50.3001 15.2512 50.4706 14.9578 50.6012 14.5229C50.7911 13.6486 50.6368 13.2058 50.2382 12.4277C49.8214 12.9254 49.6631 13.2381 49.4846 13.8453C49.3864 14.2895 49.4219 14.593 49.5087 15.1489L49.8666 15.7177Z" fill="white"/>
<path d="M48.8774 12.9886C49.4489 12.7046 49.7128 12.4901 49.9898 12.1293C50.4788 11.3783 50.4922 10.9098 50.3964 10.042C49.8294 10.361 49.5699 10.5979 49.1868 11.103C48.9368 11.4839 48.8619 11.7803 48.7451 12.3307L48.8774 12.9886Z" fill="white"/>
<path d="M48.8793 10.3861C49.4814 10.1736 49.7698 9.99267 50.089 9.66813C50.6666 8.98205 50.7375 8.51873 50.749 7.64575C50.147 7.89355 49.8604 8.09721 49.4181 8.55207C49.1231 8.89989 49.0124 9.18495 48.8289 9.71711L48.8793 10.3861Z" fill="white"/>
<path d="M49.376 7.5535C50.014 7.51918 50.3421 7.42684 50.7408 7.20546C51.4904 6.71002 51.6904 6.28562 51.9504 5.45166C51.3024 5.51988 50.9695 5.63452 50.4156 5.94626C50.0336 6.19684 49.8461 6.43906 49.5183 6.89774L49.376 7.5535Z" fill="white"/>
<path d="M50.5103 4.94884C51.1405 5.0531 51.481 5.0338 51.9186 4.90378C52.7586 4.582 53.0467 4.21094 53.4828 3.45302C52.8354 3.37972 52.4854 3.41974 51.8765 3.60446C51.4488 3.76656 51.2128 3.96252 50.7926 4.3395L50.5103 4.94884Z" fill="white"/>
<path d="M52.3506 2.48955C52.9891 2.51385 53.3244 2.45197 53.7419 2.26807C54.5342 1.84341 54.7729 1.43917 55.1091 0.632568C54.4576 0.64113 54.1154 0.724778 53.5349 0.984428C53.1217 1.17922 52.8813 1.37026 52.5532 1.84963C52.4404 2.03205 52.4046 2.18953 52.3506 2.48955Z" fill="white"/>
<path d="M53.8936 20.4046C53.3866 20.0184 53.0769 19.8764 52.6292 19.7868C51.7355 19.6787 51.3057 19.8718 50.5623 20.3372C51.0991 20.7042 51.427 20.8322 52.0518 20.9534C52.7241 21.0474 53.047 20.9884 53.3562 20.8106C53.6057 20.6544 53.726 20.5656 53.8936 20.4046Z" fill="white"/>
<path d="M51.4781 18.6045C50.971 18.2182 50.6614 18.0763 50.2136 17.9868C49.32 17.8787 48.8902 18.0717 48.1467 18.5372C48.6836 18.9041 49.0115 19.0322 49.6363 19.1534C50.3086 19.2473 50.6315 19.1884 50.9407 19.0106C51.1901 18.8543 51.3105 18.7654 51.4781 18.6045Z" fill="white"/>
<path d="M49.8327 16.3323C49.5842 15.7475 49.3856 15.472 49.0409 15.1742C48.3179 14.6413 47.8483 14.598 46.9705 14.6374C47.2545 15.22 47.4758 15.4925 47.9586 15.9047C48.4963 16.3166 48.8063 16.424 49.1635 16.4213C49.4581 16.408 49.6069 16.3899 49.8327 16.3323Z" fill="white"/>
<path d="M48.8193 13.5457C48.6621 12.9304 48.5076 12.6283 48.2119 12.2824C47.5779 11.6475 47.1201 11.5344 46.2463 11.4421C46.4389 12.0606 46.6164 12.363 47.0313 12.8428C47.5004 13.3304 47.7907 13.4829 48.1442 13.5336C48.4375 13.5645 48.5874 13.5688 48.8193 13.5457Z" fill="white"/>
<path d="M48.6092 10.8009C48.7056 10.1733 48.6816 9.83536 48.5449 9.40236C48.2097 8.57222 47.8324 8.29098 47.0638 7.86792C46.9987 8.51208 47.0437 8.8593 47.2378 9.46168C47.4788 10.0923 47.6864 10.345 47.9921 10.5286C48.2501 10.6705 48.3865 10.7325 48.6092 10.8009Z" fill="white"/>
<path d="M48.902 8.00356C49.132 7.41124 49.1816 7.07606 49.1418 6.62398C48.9941 5.74166 48.6864 5.38642 48.0273 4.80908C47.8244 5.4243 47.7932 5.77302 47.8524 6.40276C47.9514 7.0701 48.0994 7.36128 48.3583 7.60584C48.5795 7.79952 48.6993 7.88918 48.902 8.00356Z" fill="white"/>
<path d="M49.8769 5.33301C50.2707 4.83301 50.4165 4.52677 50.511 4.08279C50.6286 3.19601 50.4385 2.76709 49.9774 2.02393C49.6028 2.55367 49.4707 2.87821 49.3426 3.49777C49.2414 4.16479 49.2976 4.48617 49.4735 4.79509C49.6283 5.04445 49.7166 5.16491 49.8769 5.33301Z" fill="white"/>
<path d="M51.1773 3.50232C51.629 3.05322 51.811 2.7667 51.9587 2.3373C52.1832 1.47111 52.0466 1.02253 51.6792 0.229492C51.2429 0.710428 51.0723 1.01674 50.8699 1.6164C50.6884 2.26642 50.7051 2.59218 50.8422 2.91996C50.9656 3.18604 51.0386 3.31622 51.1773 3.50232Z" fill="white"/>
</g>
<g clip-path="url(#clip2)">
<path d="M104.075 16.08L104.447 16.35L104.306 15.91L104.679 15.65H104.226L104.075 15.2L103.924 15.65H103.471L103.843 15.91L103.702 16.35L104.075 16.08Z" fill="white"/>
<path d="M105.685 16.08L106.058 16.35L105.917 15.91L106.289 15.65H105.836L105.685 15.2L105.534 15.65H105.081L105.454 15.91L105.313 16.35L105.685 16.08Z" fill="white"/>
<path d="M107.296 16.08L107.668 16.35L107.527 15.91L107.899 15.65H107.447L107.296 15.2L107.145 15.65H106.692L107.064 15.91L106.923 16.35L107.296 16.08Z" fill="white"/>
<path d="M108.906 16.08L109.278 16.35L109.137 15.91L109.51 15.65H109.057L108.906 15.2L108.755 15.65H108.302L108.674 15.91L108.533 16.35L108.906 16.08Z" fill="white"/>
<path d="M110.516 16.08L110.889 16.35L110.748 15.91L111.12 15.65H110.667L110.516 15.2L110.365 15.65H109.912L110.285 15.91L110.144 16.35L110.516 16.08Z" fill="white"/>
<path d="M105.358 19.0001V18.9119C105.445 18.8255 105.522 18.7475 105.589 18.6779C105.657 18.6083 105.714 18.5441 105.76 18.4853C105.806 18.4253 105.841 18.3707 105.865 18.3215C105.889 18.2711 105.901 18.2225 105.901 18.1757C105.901 18.1097 105.883 18.0557 105.847 18.0137C105.811 17.9717 105.756 17.9507 105.682 17.9507C105.634 17.9507 105.589 17.9645 105.548 17.9921C105.507 18.0185 105.469 18.0509 105.435 18.0893L105.35 18.0047C105.399 17.9519 105.45 17.9099 105.504 17.8787C105.559 17.8463 105.624 17.8301 105.7 17.8301C105.807 17.8301 105.892 17.8613 105.954 17.9237C106.015 17.9849 106.046 18.0665 106.046 18.1685C106.046 18.2225 106.034 18.2771 106.01 18.3323C105.987 18.3863 105.954 18.4427 105.912 18.5015C105.871 18.5591 105.821 18.6197 105.763 18.6833C105.707 18.7457 105.644 18.8123 105.575 18.8831C105.606 18.8807 105.639 18.8783 105.673 18.8759C105.707 18.8735 105.739 18.8723 105.769 18.8723H106.104V19.0001H105.358ZM106.709 19.0217C106.592 19.0217 106.501 18.9701 106.436 18.8669C106.37 18.7637 106.338 18.6155 106.338 18.4223C106.338 18.2291 106.37 18.0821 106.436 17.9813C106.501 17.8805 106.592 17.8301 106.709 17.8301C106.825 17.8301 106.916 17.8805 106.981 17.9813C107.046 18.0821 107.079 18.2291 107.079 18.4223C107.079 18.6155 107.046 18.7637 106.981 18.8669C106.916 18.9701 106.825 19.0217 106.709 19.0217ZM106.709 18.9029C106.743 18.9029 106.773 18.8939 106.8 18.8759C106.828 18.8567 106.851 18.8279 106.87 18.7895C106.891 18.7499 106.907 18.7001 106.918 18.6401C106.928 18.5789 106.934 18.5063 106.934 18.4223C106.934 18.3383 106.928 18.2663 106.918 18.2063C106.907 18.1463 106.891 18.0977 106.87 18.0605C106.851 18.0221 106.828 17.9939 106.8 17.9759C106.773 17.9579 106.743 17.9489 106.709 17.9489C106.675 17.9489 106.645 17.9579 106.617 17.9759C106.589 17.9939 106.565 18.0221 106.544 18.0605C106.525 18.0977 106.51 18.1463 106.499 18.2063C106.488 18.2663 106.483 18.3383 106.483 18.4223C106.483 18.5903 106.503 18.7127 106.544 18.7895C106.587 18.8651 106.642 18.9029 106.709 18.9029ZM107.374 19.0001V18.8777H107.639V18.0317H107.429V17.9363C107.482 17.9267 107.528 17.9153 107.566 17.9021C107.606 17.8877 107.642 17.8709 107.673 17.8517H107.787V18.8777H108.026V19.0001H107.374ZM108.63 18.4421C108.669 18.4421 108.709 18.4301 108.751 18.4061C108.795 18.3821 108.835 18.3431 108.873 18.2891C108.863 18.1763 108.836 18.0911 108.793 18.0335C108.749 17.9759 108.691 17.9471 108.617 17.9471C108.589 17.9471 108.563 17.9531 108.537 17.9651C108.513 17.9771 108.492 17.9945 108.474 18.0173C108.456 18.0389 108.441 18.0653 108.431 18.0965C108.421 18.1277 108.416 18.1619 108.416 18.1991C108.416 18.2747 108.434 18.3341 108.469 18.3773C108.504 18.4205 108.557 18.4421 108.63 18.4421ZM108.576 19.0217C108.514 19.0217 108.46 19.0103 108.412 18.9875C108.367 18.9647 108.328 18.9359 108.297 18.9011L108.38 18.8075C108.404 18.8351 108.432 18.8573 108.465 18.8741C108.499 18.8909 108.534 18.8993 108.57 18.8993C108.611 18.8993 108.65 18.8909 108.686 18.8741C108.722 18.8573 108.754 18.8297 108.782 18.7913C108.81 18.7517 108.832 18.7007 108.849 18.6383C108.866 18.5759 108.875 18.4985 108.876 18.4061C108.84 18.4517 108.798 18.4877 108.749 18.5141C108.701 18.5405 108.653 18.5537 108.605 18.5537C108.504 18.5537 108.425 18.5243 108.365 18.4655C108.306 18.4067 108.277 18.3179 108.277 18.1991C108.277 18.1439 108.286 18.0941 108.304 18.0497C108.322 18.0041 108.346 17.9651 108.376 17.9327C108.408 17.9003 108.444 17.8751 108.485 17.8571C108.527 17.8391 108.571 17.8301 108.617 17.8301C108.674 17.8301 108.727 17.8415 108.775 17.8643C108.824 17.8871 108.867 17.9219 108.902 17.9687C108.938 18.0143 108.966 18.0719 108.985 18.1415C109.006 18.2099 109.016 18.2903 109.016 18.3827C109.016 18.4979 109.004 18.5963 108.98 18.6779C108.955 18.7583 108.923 18.8243 108.882 18.8759C108.841 18.9263 108.794 18.9635 108.74 18.9875C108.688 19.0103 108.634 19.0217 108.576 19.0217Z" fill="white"/>
<path d="M104.216 5.2379H104.847C104.949 5.2379 105.043 5.2469 105.127 5.2649C105.214 5.2809 105.288 5.3079 105.351 5.3459C105.415 5.3819 105.465 5.4309 105.499 5.4929C105.535 5.5549 105.553 5.6309 105.553 5.7209C105.553 5.8149 105.525 5.9019 105.469 5.9819C105.414 6.0619 105.33 6.1169 105.215 6.1469V6.1589C105.358 6.1829 105.467 6.2339 105.541 6.3119C105.618 6.3879 105.656 6.4919 105.656 6.6239C105.656 6.7219 105.637 6.8069 105.598 6.8789C105.56 6.9509 105.507 7.0109 105.438 7.0589C105.372 7.1069 105.292 7.1429 105.2 7.1669C105.107 7.1889 105.007 7.1999 104.898 7.1999H104.216V5.2379ZM104.816 6.0509C104.955 6.0509 105.055 6.0259 105.115 5.9759C105.178 5.9259 105.209 5.8549 105.209 5.7629C105.209 5.6729 105.177 5.6079 105.112 5.5679C105.048 5.5279 104.951 5.5079 104.822 5.5079H104.566V6.0509H104.816ZM104.862 6.9299C105.007 6.9299 105.118 6.9029 105.197 6.8489C105.275 6.7949 105.315 6.7119 105.315 6.5999C105.315 6.4979 105.276 6.4229 105.2 6.3749C105.123 6.3249 105.011 6.2999 104.862 6.2999H104.566V6.9299H104.862ZM106.017 5.2379H107.207V5.5319H106.367V6.0329H107.077V6.3269H106.367V6.9059H107.237V7.1999H106.017V5.2379ZM107.711 6.7109C107.782 6.7769 107.862 6.8309 107.953 6.8729C108.044 6.9129 108.134 6.9329 108.225 6.9329C108.337 6.9329 108.423 6.9099 108.481 6.8639C108.54 6.8179 108.569 6.7569 108.569 6.6809C108.569 6.6409 108.561 6.6069 108.545 6.5789C108.531 6.5509 108.51 6.5269 108.481 6.5069C108.455 6.4849 108.423 6.4649 108.385 6.4469C108.349 6.4289 108.308 6.4109 108.264 6.3929L107.992 6.2759C107.944 6.2559 107.896 6.2309 107.847 6.2009C107.801 6.1709 107.759 6.1349 107.72 6.0929C107.682 6.0509 107.651 6.0019 107.627 5.9459C107.605 5.8899 107.594 5.8259 107.594 5.7539C107.594 5.6759 107.61 5.6039 107.642 5.5379C107.676 5.4699 107.722 5.4109 107.781 5.3609C107.839 5.3109 107.909 5.2719 107.989 5.2439C108.072 5.2159 108.161 5.2019 108.258 5.2019C108.373 5.2019 108.483 5.2249 108.59 5.2709C108.697 5.3149 108.788 5.3749 108.865 5.4509L108.687 5.6729C108.622 5.6209 108.556 5.5799 108.487 5.5499C108.419 5.5199 108.342 5.5049 108.258 5.5049C108.163 5.5049 108.088 5.5259 108.031 5.5679C107.975 5.6079 107.947 5.6639 107.947 5.7359C107.947 5.7739 107.955 5.8069 107.971 5.8349C107.989 5.8609 108.012 5.8849 108.041 5.9069C108.071 5.9269 108.105 5.9459 108.143 5.9639C108.181 5.9799 108.221 5.9959 108.261 6.0119L108.53 6.1229C108.588 6.1469 108.641 6.1749 108.69 6.2069C108.738 6.2389 108.779 6.2759 108.814 6.3179C108.85 6.3599 108.878 6.4089 108.898 6.4649C108.918 6.5189 108.928 6.5819 108.928 6.6539C108.928 6.7339 108.912 6.8089 108.88 6.8789C108.848 6.9489 108.8 7.0109 108.738 7.0649C108.678 7.1169 108.603 7.1589 108.515 7.1909C108.428 7.2209 108.329 7.2359 108.219 7.2359C108.086 7.2359 107.957 7.2109 107.832 7.1609C107.709 7.1109 107.601 7.0399 107.506 6.9479L107.711 6.7109ZM109.627 5.5319H109.056V5.2379H110.548V5.5319H109.977V7.1999H109.627V5.5319ZM102.138 8.6379H102.525L102.881 9.6039L103.011 9.9759H103.023L103.15 9.6039L103.5 8.6379H103.886V10.5999H103.557V9.7029C103.557 9.6569 103.558 9.6069 103.56 9.5529C103.564 9.4989 103.568 9.4449 103.572 9.3909C103.576 9.3349 103.581 9.2809 103.588 9.2289C103.594 9.1749 103.599 9.1249 103.603 9.0789H103.591L103.431 9.5259L103.089 10.4169H102.926L102.585 9.5259L102.428 9.0789H102.416C102.42 9.1249 102.424 9.1749 102.428 9.2289C102.434 9.2809 102.439 9.3349 102.443 9.3909C102.449 9.4449 102.453 9.4989 102.455 9.5529C102.459 9.6069 102.461 9.6569 102.461 9.7029V10.5999H102.138V8.6379ZM105.227 9.7959L105.158 9.5559C105.126 9.4519 105.095 9.3449 105.064 9.2349C105.036 9.1249 105.008 9.0159 104.98 8.9079H104.968C104.94 9.0179 104.911 9.1279 104.883 9.2379C104.855 9.3459 104.825 9.4519 104.793 9.5559L104.723 9.7959H105.227ZM105.306 10.0689H104.642L104.488 10.5999H104.131L104.775 8.6379H105.185L105.828 10.5999H105.46L105.306 10.0689ZM106.422 9.5559H106.703C106.838 9.5559 106.94 9.5279 107.011 9.4719C107.083 9.4159 107.12 9.3319 107.12 9.2199C107.12 9.1059 107.083 9.0269 107.011 8.9829C106.94 8.9389 106.838 8.9169 106.703 8.9169H106.422V9.5559ZM107.15 10.5999L106.724 9.8319H106.422V10.5999H106.072V8.6379H106.739C106.842 8.6379 106.937 8.6479 107.026 8.6679C107.114 8.6879 107.191 8.7209 107.255 8.7669C107.32 8.8109 107.37 8.8699 107.406 8.9439C107.445 9.0179 107.464 9.1099 107.464 9.2199C107.464 9.3699 107.428 9.4909 107.355 9.5829C107.285 9.6749 107.19 9.7409 107.071 9.7809L107.542 10.5999H107.15ZM107.879 8.6379H108.23V9.5289H108.239L108.942 8.6379H109.332L108.725 9.4029L109.434 10.5999H109.048L108.513 9.6759L108.23 10.0269V10.5999H107.879V8.6379ZM109.681 8.6379H110.871V8.9319H110.031V9.4329H110.741V9.7269H110.031V10.3059H110.901V10.5999H109.681V8.6379ZM111.704 8.9319H111.134V8.6379H112.625V8.9319H112.055V10.5999H111.704V8.9319ZM103.385 12.0379H104.05C104.158 12.0379 104.258 12.0479 104.349 12.0679C104.441 12.0879 104.521 12.1219 104.587 12.1699C104.654 12.2179 104.706 12.2809 104.744 12.3589C104.783 12.4349 104.802 12.5299 104.802 12.6439C104.802 12.7519 104.783 12.8459 104.744 12.9259C104.706 13.0059 104.653 13.0729 104.584 13.1269C104.518 13.1789 104.438 13.2179 104.346 13.2439C104.255 13.2679 104.156 13.2799 104.05 13.2799H103.736V13.9999H103.385V12.0379ZM104.023 13.0009C104.312 13.0009 104.457 12.8819 104.457 12.6439C104.457 12.5199 104.421 12.4349 104.349 12.3889C104.276 12.3409 104.168 12.3169 104.023 12.3169H103.736V13.0009H104.023ZM105.172 12.0379H105.523V13.7059H106.344V13.9999H105.172V12.0379ZM107.527 13.1959L107.458 12.9559C107.426 12.8519 107.395 12.7449 107.364 12.6349C107.336 12.5249 107.308 12.4159 107.28 12.3079H107.268C107.24 12.4179 107.211 12.5279 107.183 12.6379C107.155 12.7459 107.125 12.8519 107.093 12.9559L107.023 13.1959H107.527ZM107.606 13.4689H106.942L106.788 13.9999H106.431L107.075 12.0379H107.485L108.128 13.9999H107.76L107.606 13.4689ZM108.24 13.0249C108.24 12.8649 108.263 12.7219 108.309 12.5959C108.357 12.4679 108.423 12.3599 108.505 12.2719C108.588 12.1839 108.684 12.1169 108.795 12.0709C108.906 12.0249 109.025 12.0019 109.151 12.0019C109.272 12.0019 109.38 12.0269 109.475 12.0769C109.571 12.1269 109.651 12.1849 109.713 12.2509L109.517 12.4669C109.467 12.4169 109.412 12.3779 109.354 12.3499C109.297 12.3199 109.231 12.3049 109.155 12.3049C109.072 12.3049 108.996 12.3219 108.928 12.3559C108.862 12.3879 108.803 12.4349 108.753 12.4969C108.705 12.5569 108.666 12.6309 108.638 12.7189C108.612 12.8069 108.599 12.9059 108.599 13.0159C108.599 13.2399 108.647 13.4159 108.744 13.5439C108.842 13.6699 108.975 13.7329 109.142 13.7329C109.231 13.7329 109.307 13.7159 109.372 13.6819C109.438 13.6479 109.5 13.5999 109.556 13.5379L109.752 13.7509C109.672 13.8429 109.58 13.9139 109.478 13.9639C109.375 14.0119 109.261 14.0359 109.136 14.0359C109.01 14.0359 108.892 14.0139 108.783 13.9699C108.674 13.9259 108.58 13.8609 108.499 13.7749C108.419 13.6889 108.355 13.5829 108.309 13.4569C108.263 13.3309 108.24 13.1869 108.24 13.0249ZM110.082 12.0379H111.272V12.3319H110.432V12.8329H111.142V13.1269H110.432V13.7059H111.302V13.9999H110.082V12.0379Z" fill="white"/>
<path d="M108.274 2.89224C108.251 2.87206 108.217 2.86782 108.189 2.88142L107.759 3.08954L107.355 2.62704C107.34 2.60992 107.318 2.6001 107.296 2.6001C107.273 2.6001 107.251 2.60992 107.236 2.62704L106.832 3.08954L106.402 2.88142C106.374 2.86782 106.34 2.87206 106.317 2.89224C106.293 2.9124 106.283 2.94466 106.292 2.97438L106.591 3.95094C106.601 3.98386 106.632 4.00634 106.666 4.00634H107.925C107.959 4.00634 107.99 3.98386 108 3.95096L108.299 2.97438C108.308 2.94466 108.298 2.9124 108.274 2.89224ZM107.866 3.8501H106.725L106.495 3.1003L106.818 3.25628C106.85 3.27176 106.888 3.26394 106.912 3.23722L107.296 2.79746L107.679 3.23722C107.703 3.26396 107.741 3.27176 107.773 3.25628L108.096 3.1003L107.866 3.8501Z" fill="white"/>
<path d="M115.146 20C115.021 19.3774 115.029 19.0387 115.146 18.6C115.443 17.7555 115.807 17.4575 116.555 17C116.65 17.6405 116.621 17.9894 116.455 18.6C116.305 19.0299 116.116 19.2705 115.75 19.7L115.146 20Z" fill="#8C8E98"/>
<path d="M117.457 18.2805C117.167 17.7145 117.083 17.386 117.077 16.9323C117.133 16.0396 117.403 15.6551 118 15.0142C118.265 15.6057 118.331 15.9494 118.337 16.5819C118.31 17.0359 118.192 17.3184 117.957 17.8299L117.457 18.2805Z" fill="#8C8E98"/>
<path d="M119.012 15.7177C118.579 15.2512 118.408 14.9578 118.278 14.5229C118.088 13.6486 118.242 13.2058 118.641 12.4277C119.057 12.9254 119.216 13.2381 119.394 13.8453C119.492 14.2895 119.457 14.593 119.37 15.1489L119.012 15.7177Z" fill="#8C8E98"/>
<path d="M120.001 12.9886C119.43 12.7046 119.166 12.4901 118.889 12.1293C118.4 11.3783 118.387 10.9098 118.482 10.042C119.049 10.361 119.309 10.5979 119.692 11.103C119.942 11.4839 120.017 11.7803 120.134 12.3307L120.001 12.9886Z" fill="#8C8E98"/>
<path d="M119.999 10.3861C119.397 10.1736 119.109 9.99267 118.789 9.66813C118.212 8.98205 118.141 8.51873 118.13 7.64575C118.732 7.89355 119.018 8.09721 119.46 8.55207C119.755 8.89989 119.866 9.18495 120.05 9.71711L119.999 10.3861Z" fill="#8C8E98"/>
<path d="M119.502 7.5535C118.864 7.51918 118.536 7.42684 118.138 7.20546C117.388 6.71002 117.188 6.28562 116.928 5.45166C117.576 5.51988 117.909 5.63452 118.463 5.94626C118.845 6.19684 119.032 6.43906 119.36 6.89774L119.502 7.5535Z" fill="#8C8E98"/>
<path d="M118.368 4.94884C117.738 5.0531 117.397 5.0338 116.96 4.90378C116.12 4.582 115.832 4.21094 115.396 3.45302C116.043 3.37972 116.393 3.41974 117.002 3.60446C117.43 3.76656 117.666 3.96252 118.086 4.3395L118.368 4.94884Z" fill="#8C8E98"/>
<path d="M116.528 2.48955C115.89 2.51385 115.554 2.45197 115.137 2.26807C114.344 1.84341 114.106 1.43917 113.77 0.632568C114.421 0.64113 114.763 0.724778 115.344 0.984428C115.757 1.17922 115.997 1.37026 116.325 1.84963C116.438 2.03205 116.474 2.18953 116.528 2.48955Z" fill="#8C8E98"/>
<path d="M114.985 20.4046C115.492 20.0184 115.802 19.8764 116.249 19.7868C117.143 19.6787 117.573 19.8718 118.316 20.3372C117.779 20.7042 117.452 20.8322 116.827 20.9534C116.154 21.0474 115.832 20.9884 115.522 20.8106C115.273 20.6544 115.153 20.5656 114.985 20.4046Z" fill="#8C8E98"/>
<path d="M117.401 18.6045C117.908 18.2182 118.217 18.0763 118.665 17.9868C119.559 17.8787 119.989 18.0717 120.732 18.5372C120.195 18.9041 119.867 19.0322 119.243 19.1534C118.57 19.2473 118.247 19.1884 117.938 19.0106C117.689 18.8543 117.568 18.7654 117.401 18.6045Z" fill="#8C8E98"/>
<path d="M119.046 16.3323C119.295 15.7475 119.493 15.472 119.838 15.1742C120.561 14.6413 121.03 14.598 121.908 14.6374C121.624 15.22 121.403 15.4925 120.92 15.9047C120.382 16.3166 120.072 16.424 119.715 16.4213C119.421 16.408 119.272 16.3899 119.046 16.3323Z" fill="#8C8E98"/>
<path d="M120.059 13.5457C120.216 12.9304 120.371 12.6283 120.667 12.2824C121.301 11.6475 121.758 11.5344 122.632 11.4421C122.44 12.0606 122.262 12.363 121.847 12.8428C121.378 13.3304 121.088 13.4829 120.734 13.5336C120.441 13.5645 120.291 13.5688 120.059 13.5457Z" fill="#8C8E98"/>
<path d="M120.269 10.8009C120.173 10.1733 120.197 9.83536 120.334 9.40236C120.669 8.57222 121.046 8.29098 121.814 7.86792C121.88 8.51208 121.835 8.8593 121.641 9.46168C121.4 10.0923 121.192 10.345 120.886 10.5286C120.628 10.6705 120.492 10.7325 120.269 10.8009Z" fill="#8C8E98"/>
<path d="M119.977 8.00356C119.747 7.41124 119.697 7.07606 119.737 6.62398C119.885 5.74166 120.192 5.38642 120.852 4.80908C121.054 5.4243 121.086 5.77302 121.026 6.40276C120.927 7.0701 120.779 7.36128 120.521 7.60584C120.299 7.79952 120.18 7.88918 119.977 8.00356Z" fill="#8C8E98"/>
<path d="M119.002 5.33301C118.608 4.83301 118.462 4.52677 118.368 4.08279C118.25 3.19601 118.44 2.76709 118.901 2.02393C119.276 2.55367 119.408 2.87821 119.536 3.49777C119.637 4.16479 119.581 4.48617 119.405 4.79509C119.25 5.04445 119.162 5.16491 119.002 5.33301Z" fill="#8C8E98"/>
<path d="M117.701 3.50232C117.25 3.05322 117.067 2.7667 116.92 2.3373C116.695 1.47111 116.832 1.02253 117.199 0.229492C117.636 0.710428 117.806 1.01674 118.009 1.6164C118.19 2.26642 118.173 2.59218 118.036 2.91996C117.913 3.18604 117.84 3.31622 117.701 3.50232Z" fill="#8C8E98"/>
<path d="M99.7324 20C99.8576 19.3774 99.8491 19.0387 99.7324 18.6C99.4357 17.7555 99.0717 17.4575 98.3233 17C98.2287 17.6405 98.2578 17.9894 98.424 18.6C98.5733 19.0299 98.7628 19.2705 99.1285 19.7L99.7324 20Z" fill="#8C8E98"/>
<path d="M97.4222 18.2805C97.7116 17.7145 97.7954 17.386 97.802 16.9323C97.7454 16.0396 97.4757 15.6551 96.8791 15.0142C96.6143 15.6057 96.5475 15.9494 96.542 16.5819C96.5691 17.0359 96.6864 17.3184 96.9221 17.8299L97.4222 18.2805Z" fill="#8C8E98"/>
<path d="M95.8666 15.7177C96.3001 15.2512 96.4706 14.9578 96.6012 14.5229C96.7911 13.6486 96.6368 13.2058 96.2382 12.4277C95.8214 12.9254 95.6631 13.2381 95.4846 13.8453C95.3864 14.2895 95.4219 14.593 95.5087 15.1489L95.8666 15.7177Z" fill="#8C8E98"/>
<path d="M94.8774 12.9886C95.4489 12.7046 95.7128 12.4901 95.9898 12.1293C96.4788 11.3783 96.4922 10.9098 96.3964 10.042C95.8294 10.361 95.5699 10.5979 95.1868 11.103C94.9368 11.4839 94.8619 11.7803 94.7451 12.3307L94.8774 12.9886Z" fill="#8C8E98"/>
<path d="M94.8793 10.3861C95.4814 10.1736 95.7698 9.99267 96.089 9.66813C96.6666 8.98205 96.7375 8.51873 96.749 7.64575C96.147 7.89355 95.8604 8.09721 95.4181 8.55207C95.1231 8.89989 95.0124 9.18495 94.8289 9.71711L94.8793 10.3861Z" fill="#8C8E98"/>
<path d="M95.376 7.5535C96.014 7.51918 96.3421 7.42684 96.7408 7.20546C97.4904 6.71002 97.6904 6.28562 97.9504 5.45166C97.3024 5.51988 96.9695 5.63452 96.4156 5.94626C96.0336 6.19684 95.8461 6.43906 95.5183 6.89774L95.376 7.5535Z" fill="#8C8E98"/>
<path d="M96.5103 4.94884C97.1405 5.0531 97.481 5.0338 97.9186 4.90378C98.7586 4.582 99.0467 4.21094 99.4828 3.45302C98.8354 3.37972 98.4854 3.41974 97.8765 3.60446C97.4488 3.76656 97.2128 3.96252 96.7926 4.3395L96.5103 4.94884Z" fill="#8C8E98"/>
<path d="M98.3506 2.48955C98.9891 2.51385 99.3244 2.45197 99.7419 2.26807C100.534 1.84341 100.773 1.43917 101.109 0.632568C100.458 0.64113 100.115 0.724778 99.5349 0.984428C99.1217 1.17922 98.8813 1.37026 98.5532 1.84963C98.4404 2.03205 98.4046 2.18953 98.3506 2.48955Z" fill="#8C8E98"/>
<path d="M99.8936 20.4046C99.3866 20.0184 99.0769 19.8764 98.6292 19.7868C97.7355 19.6787 97.3057 19.8718 96.5623 20.3372C97.0991 20.7042 97.427 20.8322 98.0518 20.9534C98.7241 21.0474 99.047 20.9884 99.3562 20.8106C99.6057 20.6544 99.726 20.5656 99.8936 20.4046Z" fill="#8C8E98"/>
<path d="M97.4781 18.6045C96.971 18.2182 96.6614 18.0763 96.2136 17.9868C95.32 17.8787 94.8902 18.0717 94.1467 18.5372C94.6836 18.9041 95.0115 19.0322 95.6363 19.1534C96.3086 19.2473 96.6315 19.1884 96.9407 19.0106C97.1901 18.8543 97.3105 18.7654 97.4781 18.6045Z" fill="#8C8E98"/>
<path d="M95.8327 16.3323C95.5842 15.7475 95.3856 15.472 95.0409 15.1742C94.3179 14.6413 93.8483 14.598 92.9705 14.6374C93.2545 15.22 93.4758 15.4925 93.9586 15.9047C94.4963 16.3166 94.8063 16.424 95.1635 16.4213C95.4581 16.408 95.6069 16.3899 95.8327 16.3323Z" fill="#8C8E98"/>
<path d="M94.8193 13.5457C94.6621 12.9304 94.5076 12.6283 94.2119 12.2824C93.5779 11.6475 93.1201 11.5344 92.2463 11.4421C92.4389 12.0606 92.6164 12.363 93.0313 12.8428C93.5004 13.3304 93.7907 13.4829 94.1442 13.5336C94.4375 13.5645 94.5874 13.5688 94.8193 13.5457Z" fill="#8C8E98"/>
<path d="M94.6092 10.8009C94.7056 10.1733 94.6816 9.83536 94.5449 9.40236C94.2097 8.57222 93.8324 8.29098 93.0638 7.86792C92.9987 8.51208 93.0437 8.8593 93.2378 9.46168C93.4788 10.0923 93.6864 10.345 93.9921 10.5286C94.2501 10.6705 94.3865 10.7325 94.6092 10.8009Z" fill="#8C8E98"/>
<path d="M94.902 8.00356C95.132 7.41124 95.1816 7.07606 95.1418 6.62398C94.9941 5.74166 94.6864 5.38642 94.0273 4.80908C93.8244 5.4243 93.7932 5.77302 93.8524 6.40276C93.9514 7.0701 94.0994 7.36128 94.3583 7.60584C94.5795 7.79952 94.6993 7.88918 94.902 8.00356Z" fill="#8C8E98"/>
<path d="M95.8769 5.33301C96.2707 4.83301 96.4165 4.52677 96.511 4.08279C96.6286 3.19601 96.4385 2.76709 95.9774 2.02393C95.6028 2.55367 95.4707 2.87821 95.3426 3.49777C95.2414 4.16479 95.2976 4.48617 95.4735 4.79509C95.6283 5.04445 95.7166 5.16491 95.8769 5.33301Z" fill="#8C8E98"/>
<path d="M97.1773 3.50232C97.629 3.05322 97.811 2.7667 97.9587 2.3373C98.1832 1.47111 98.0466 1.02253 97.6792 0.229492C97.2429 0.710428 97.0723 1.01674 96.8699 1.6164C96.6884 2.26642 96.7051 2.59218 96.8422 2.91996C96.9656 3.18604 97.0386 3.31622 97.1773 3.50232Z" fill="#8C8E98"/>
</g>
<g clip-path="url(#clip3)">
<path d="M150.075 16.08L150.447 16.35L150.306 15.91L150.679 15.65H150.226L150.075 15.2L149.924 15.65H149.471L149.843 15.91L149.702 16.35L150.075 16.08Z" fill="white"/>
<path d="M151.685 16.08L152.058 16.35L151.917 15.91L152.289 15.65H151.836L151.685 15.2L151.534 15.65H151.081L151.454 15.91L151.313 16.35L151.685 16.08Z" fill="white"/>
<path d="M153.296 16.08L153.668 16.35L153.527 15.91L153.899 15.65H153.447L153.296 15.2L153.145 15.65H152.692L153.064 15.91L152.923 16.35L153.296 16.08Z" fill="white"/>
<path d="M154.906 16.08L155.278 16.35L155.137 15.91L155.51 15.65H155.057L154.906 15.2L154.755 15.65H154.302L154.674 15.91L154.533 16.35L154.906 16.08Z" fill="white"/>
<path d="M156.516 16.08L156.889 16.35L156.748 15.91L157.12 15.65H156.667L156.516 15.2L156.365 15.65H155.912L156.285 15.91L156.144 16.35L156.516 16.08Z" fill="white"/>
<path d="M151.358 19.0001V18.9119C151.445 18.8255 151.522 18.7475 151.589 18.6779C151.657 18.6083 151.714 18.5441 151.76 18.4853C151.806 18.4253 151.841 18.3707 151.865 18.3215C151.889 18.2711 151.901 18.2225 151.901 18.1757C151.901 18.1097 151.883 18.0557 151.847 18.0137C151.811 17.9717 151.756 17.9507 151.682 17.9507C151.634 17.9507 151.589 17.9645 151.548 17.9921C151.507 18.0185 151.469 18.0509 151.435 18.0893L151.35 18.0047C151.399 17.9519 151.45 17.9099 151.504 17.8787C151.559 17.8463 151.624 17.8301 151.7 17.8301C151.807 17.8301 151.892 17.8613 151.954 17.9237C152.015 17.9849 152.046 18.0665 152.046 18.1685C152.046 18.2225 152.034 18.2771 152.01 18.3323C151.987 18.3863 151.954 18.4427 151.912 18.5015C151.871 18.5591 151.821 18.6197 151.763 18.6833C151.707 18.7457 151.644 18.8123 151.575 18.8831C151.606 18.8807 151.639 18.8783 151.673 18.8759C151.707 18.8735 151.739 18.8723 151.769 18.8723H152.104V19.0001H151.358ZM152.709 19.0217C152.592 19.0217 152.501 18.9701 152.436 18.8669C152.37 18.7637 152.338 18.6155 152.338 18.4223C152.338 18.2291 152.37 18.0821 152.436 17.9813C152.501 17.8805 152.592 17.8301 152.709 17.8301C152.825 17.8301 152.916 17.8805 152.981 17.9813C153.046 18.0821 153.079 18.2291 153.079 18.4223C153.079 18.6155 153.046 18.7637 152.981 18.8669C152.916 18.9701 152.825 19.0217 152.709 19.0217ZM152.709 18.9029C152.743 18.9029 152.773 18.8939 152.8 18.8759C152.828 18.8567 152.851 18.8279 152.87 18.7895C152.891 18.7499 152.907 18.7001 152.918 18.6401C152.928 18.5789 152.934 18.5063 152.934 18.4223C152.934 18.3383 152.928 18.2663 152.918 18.2063C152.907 18.1463 152.891 18.0977 152.87 18.0605C152.851 18.0221 152.828 17.9939 152.8 17.9759C152.773 17.9579 152.743 17.9489 152.709 17.9489C152.675 17.9489 152.645 17.9579 152.617 17.9759C152.589 17.9939 152.565 18.0221 152.544 18.0605C152.525 18.0977 152.51 18.1463 152.499 18.2063C152.488 18.2663 152.483 18.3383 152.483 18.4223C152.483 18.5903 152.503 18.7127 152.544 18.7895C152.587 18.8651 152.642 18.9029 152.709 18.9029ZM153.374 19.0001V18.8777H153.639V18.0317H153.429V17.9363C153.482 17.9267 153.528 17.9153 153.566 17.9021C153.606 17.8877 153.642 17.8709 153.673 17.8517H153.787V18.8777H154.026V19.0001H153.374ZM154.63 18.4421C154.669 18.4421 154.709 18.4301 154.751 18.4061C154.795 18.3821 154.835 18.3431 154.873 18.2891C154.863 18.1763 154.836 18.0911 154.793 18.0335C154.749 17.9759 154.691 17.9471 154.617 17.9471C154.589 17.9471 154.563 17.9531 154.537 17.9651C154.513 17.9771 154.492 17.9945 154.474 18.0173C154.456 18.0389 154.441 18.0653 154.431 18.0965C154.421 18.1277 154.416 18.1619 154.416 18.1991C154.416 18.2747 154.434 18.3341 154.469 18.3773C154.504 18.4205 154.557 18.4421 154.63 18.4421ZM154.576 19.0217C154.514 19.0217 154.46 19.0103 154.412 18.9875C154.367 18.9647 154.328 18.9359 154.297 18.9011L154.38 18.8075C154.404 18.8351 154.432 18.8573 154.465 18.8741C154.499 18.8909 154.534 18.8993 154.57 18.8993C154.611 18.8993 154.65 18.8909 154.686 18.8741C154.722 18.8573 154.754 18.8297 154.782 18.7913C154.81 18.7517 154.832 18.7007 154.849 18.6383C154.866 18.5759 154.875 18.4985 154.876 18.4061C154.84 18.4517 154.798 18.4877 154.749 18.5141C154.701 18.5405 154.653 18.5537 154.605 18.5537C154.504 18.5537 154.425 18.5243 154.365 18.4655C154.306 18.4067 154.277 18.3179 154.277 18.1991C154.277 18.1439 154.286 18.0941 154.304 18.0497C154.322 18.0041 154.346 17.9651 154.376 17.9327C154.408 17.9003 154.444 17.8751 154.485 17.8571C154.527 17.8391 154.571 17.8301 154.617 17.8301C154.674 17.8301 154.727 17.8415 154.775 17.8643C154.824 17.8871 154.867 17.9219 154.902 17.9687C154.938 18.0143 154.966 18.0719 154.985 18.1415C155.006 18.2099 155.016 18.2903 155.016 18.3827C155.016 18.4979 155.004 18.5963 154.98 18.6779C154.955 18.7583 154.923 18.8243 154.882 18.8759C154.841 18.9263 154.794 18.9635 154.74 18.9875C154.688 19.0103 154.634 19.0217 154.576 19.0217Z" fill="white"/>
<path d="M150.216 5.2379H150.847C150.949 5.2379 151.043 5.2469 151.127 5.2649C151.214 5.2809 151.288 5.3079 151.351 5.3459C151.415 5.3819 151.465 5.4309 151.499 5.4929C151.535 5.5549 151.553 5.6309 151.553 5.7209C151.553 5.8149 151.525 5.9019 151.469 5.9819C151.414 6.0619 151.33 6.1169 151.215 6.1469V6.1589C151.358 6.1829 151.467 6.2339 151.541 6.3119C151.618 6.3879 151.656 6.4919 151.656 6.6239C151.656 6.7219 151.637 6.8069 151.598 6.8789C151.56 6.9509 151.507 7.0109 151.438 7.0589C151.372 7.1069 151.292 7.1429 151.2 7.1669C151.107 7.1889 151.007 7.1999 150.898 7.1999H150.216V5.2379ZM150.816 6.0509C150.955 6.0509 151.055 6.0259 151.115 5.9759C151.178 5.9259 151.209 5.8549 151.209 5.7629C151.209 5.6729 151.177 5.6079 151.112 5.5679C151.048 5.5279 150.951 5.5079 150.822 5.5079H150.566V6.0509H150.816ZM150.862 6.9299C151.007 6.9299 151.118 6.9029 151.197 6.8489C151.275 6.7949 151.315 6.7119 151.315 6.5999C151.315 6.4979 151.276 6.4229 151.2 6.3749C151.123 6.3249 151.011 6.2999 150.862 6.2999H150.566V6.9299H150.862ZM152.017 5.2379H153.207V5.5319H152.367V6.0329H153.077V6.3269H152.367V6.9059H153.237V7.1999H152.017V5.2379ZM153.711 6.7109C153.782 6.7769 153.862 6.8309 153.953 6.8729C154.044 6.9129 154.134 6.9329 154.225 6.9329C154.337 6.9329 154.423 6.9099 154.481 6.8639C154.54 6.8179 154.569 6.7569 154.569 6.6809C154.569 6.6409 154.561 6.6069 154.545 6.5789C154.531 6.5509 154.51 6.5269 154.481 6.5069C154.455 6.4849 154.423 6.4649 154.385 6.4469C154.349 6.4289 154.308 6.4109 154.264 6.3929L153.992 6.2759C153.944 6.2559 153.896 6.2309 153.847 6.2009C153.801 6.1709 153.759 6.1349 153.72 6.0929C153.682 6.0509 153.651 6.0019 153.627 5.9459C153.605 5.8899 153.594 5.8259 153.594 5.7539C153.594 5.6759 153.61 5.6039 153.642 5.5379C153.676 5.4699 153.722 5.4109 153.781 5.3609C153.839 5.3109 153.909 5.2719 153.989 5.2439C154.072 5.2159 154.161 5.2019 154.258 5.2019C154.373 5.2019 154.483 5.2249 154.59 5.2709C154.697 5.3149 154.788 5.3749 154.865 5.4509L154.687 5.6729C154.622 5.6209 154.556 5.5799 154.487 5.5499C154.419 5.5199 154.342 5.5049 154.258 5.5049C154.163 5.5049 154.088 5.5259 154.031 5.5679C153.975 5.6079 153.947 5.6639 153.947 5.7359C153.947 5.7739 153.955 5.8069 153.971 5.8349C153.989 5.8609 154.012 5.8849 154.041 5.9069C154.071 5.9269 154.105 5.9459 154.143 5.9639C154.181 5.9799 154.221 5.9959 154.261 6.0119L154.53 6.1229C154.588 6.1469 154.641 6.1749 154.69 6.2069C154.738 6.2389 154.779 6.2759 154.814 6.3179C154.85 6.3599 154.878 6.4089 154.898 6.4649C154.918 6.5189 154.928 6.5819 154.928 6.6539C154.928 6.7339 154.912 6.8089 154.88 6.8789C154.848 6.9489 154.8 7.0109 154.738 7.0649C154.678 7.1169 154.603 7.1589 154.515 7.1909C154.428 7.2209 154.329 7.2359 154.219 7.2359C154.086 7.2359 153.957 7.2109 153.832 7.1609C153.709 7.1109 153.601 7.0399 153.506 6.9479L153.711 6.7109ZM155.627 5.5319H155.056V5.2379H156.548V5.5319H155.977V7.1999H155.627V5.5319ZM148.138 8.6379H148.525L148.881 9.6039L149.011 9.9759H149.023L149.15 9.6039L149.5 8.6379H149.886V10.5999H149.557V9.7029C149.557 9.6569 149.558 9.6069 149.56 9.5529C149.564 9.4989 149.568 9.4449 149.572 9.3909C149.576 9.3349 149.581 9.2809 149.588 9.2289C149.594 9.1749 149.599 9.1249 149.603 9.0789H149.591L149.431 9.5259L149.089 10.4169H148.926L148.585 9.5259L148.428 9.0789H148.416C148.42 9.1249 148.424 9.1749 148.428 9.2289C148.434 9.2809 148.439 9.3349 148.443 9.3909C148.449 9.4449 148.453 9.4989 148.455 9.5529C148.459 9.6069 148.461 9.6569 148.461 9.7029V10.5999H148.138V8.6379ZM151.227 9.7959L151.158 9.5559C151.126 9.4519 151.095 9.3449 151.064 9.2349C151.036 9.1249 151.008 9.0159 150.98 8.9079H150.968C150.94 9.0179 150.911 9.1279 150.883 9.2379C150.855 9.3459 150.825 9.4519 150.793 9.5559L150.723 9.7959H151.227ZM151.306 10.0689H150.642L150.488 10.5999H150.131L150.775 8.6379H151.185L151.828 10.5999H151.46L151.306 10.0689ZM152.422 9.5559H152.703C152.838 9.5559 152.94 9.5279 153.011 9.4719C153.083 9.4159 153.12 9.3319 153.12 9.2199C153.12 9.1059 153.083 9.0269 153.011 8.9829C152.94 8.9389 152.838 8.9169 152.703 8.9169H152.422V9.5559ZM153.15 10.5999L152.724 9.8319H152.422V10.5999H152.072V8.6379H152.739C152.842 8.6379 152.937 8.6479 153.026 8.6679C153.114 8.6879 153.191 8.7209 153.255 8.7669C153.32 8.8109 153.37 8.8699 153.406 8.9439C153.445 9.0179 153.464 9.1099 153.464 9.2199C153.464 9.3699 153.428 9.4909 153.355 9.5829C153.285 9.6749 153.19 9.7409 153.071 9.7809L153.542 10.5999H153.15ZM153.879 8.6379H154.23V9.5289H154.239L154.942 8.6379H155.332L154.725 9.4029L155.434 10.5999H155.048L154.513 9.6759L154.23 10.0269V10.5999H153.879V8.6379ZM155.681 8.6379H156.871V8.9319H156.031V9.4329H156.741V9.7269H156.031V10.3059H156.901V10.5999H155.681V8.6379ZM157.704 8.9319H157.134V8.6379H158.625V8.9319H158.055V10.5999H157.704V8.9319ZM149.385 12.0379H150.05C150.158 12.0379 150.258 12.0479 150.349 12.0679C150.441 12.0879 150.521 12.1219 150.587 12.1699C150.654 12.2179 150.706 12.2809 150.744 12.3589C150.783 12.4349 150.802 12.5299 150.802 12.6439C150.802 12.7519 150.783 12.8459 150.744 12.9259C150.706 13.0059 150.653 13.0729 150.584 13.1269C150.518 13.1789 150.438 13.2179 150.346 13.2439C150.255 13.2679 150.156 13.2799 150.05 13.2799H149.736V13.9999H149.385V12.0379ZM150.023 13.0009C150.312 13.0009 150.457 12.8819 150.457 12.6439C150.457 12.5199 150.421 12.4349 150.349 12.3889C150.276 12.3409 150.168 12.3169 150.023 12.3169H149.736V13.0009H150.023ZM151.172 12.0379H151.523V13.7059H152.344V13.9999H151.172V12.0379ZM153.527 13.1959L153.458 12.9559C153.426 12.8519 153.395 12.7449 153.364 12.6349C153.336 12.5249 153.308 12.4159 153.28 12.3079H153.268C153.24 12.4179 153.211 12.5279 153.183 12.6379C153.155 12.7459 153.125 12.8519 153.093 12.9559L153.023 13.1959H153.527ZM153.606 13.4689H152.942L152.788 13.9999H152.431L153.075 12.0379H153.485L154.128 13.9999H153.76L153.606 13.4689ZM154.24 13.0249C154.24 12.8649 154.263 12.7219 154.309 12.5959C154.357 12.4679 154.423 12.3599 154.505 12.2719C154.588 12.1839 154.684 12.1169 154.795 12.0709C154.906 12.0249 155.025 12.0019 155.151 12.0019C155.272 12.0019 155.38 12.0269 155.475 12.0769C155.571 12.1269 155.651 12.1849 155.713 12.2509L155.517 12.4669C155.467 12.4169 155.412 12.3779 155.354 12.3499C155.297 12.3199 155.231 12.3049 155.155 12.3049C155.072 12.3049 154.996 12.3219 154.928 12.3559C154.862 12.3879 154.803 12.4349 154.753 12.4969C154.705 12.5569 154.666 12.6309 154.638 12.7189C154.612 12.8069 154.599 12.9059 154.599 13.0159C154.599 13.2399 154.647 13.4159 154.744 13.5439C154.842 13.6699 154.975 13.7329 155.142 13.7329C155.231 13.7329 155.307 13.7159 155.372 13.6819C155.438 13.6479 155.5 13.5999 155.556 13.5379L155.752 13.7509C155.672 13.8429 155.58 13.9139 155.478 13.9639C155.375 14.0119 155.261 14.0359 155.136 14.0359C155.01 14.0359 154.892 14.0139 154.783 13.9699C154.674 13.9259 154.58 13.8609 154.499 13.7749C154.419 13.6889 154.355 13.5829 154.309 13.4569C154.263 13.3309 154.24 13.1869 154.24 13.0249ZM156.082 12.0379H157.272V12.3319H156.432V12.8329H157.142V13.1269H156.432V13.7059H157.302V13.9999H156.082V12.0379Z" fill="white"/>
<path d="M154.274 2.89224C154.251 2.87206 154.217 2.86782 154.189 2.88142L153.759 3.08954L153.355 2.62704C153.34 2.60992 153.318 2.6001 153.296 2.6001C153.273 2.6001 153.251 2.60992 153.236 2.62704L152.832 3.08954L152.402 2.88142C152.374 2.86782 152.34 2.87206 152.317 2.89224C152.293 2.9124 152.283 2.94466 152.292 2.97438L152.591 3.95094C152.601 3.98386 152.632 4.00634 152.666 4.00634H153.925C153.959 4.00634 153.99 3.98386 154 3.95096L154.299 2.97438C154.308 2.94466 154.298 2.9124 154.274 2.89224ZM153.866 3.8501H152.725L152.495 3.1003L152.818 3.25628C152.85 3.27176 152.888 3.26394 152.912 3.23722L153.296 2.79746L153.679 3.23722C153.703 3.26396 153.741 3.27176 153.773 3.25628L154.096 3.1003L153.866 3.8501Z" fill="white"/>
<path d="M161.146 20C161.021 19.3774 161.029 19.0387 161.146 18.6C161.443 17.7555 161.807 17.4575 162.555 17C162.65 17.6405 162.621 17.9894 162.455 18.6C162.305 19.0299 162.116 19.2705 161.75 19.7L161.146 20Z" fill="#BA7E3B"/>
<path d="M163.457 18.2805C163.167 17.7145 163.083 17.386 163.077 16.9323C163.133 16.0396 163.403 15.6551 164 15.0142C164.265 15.6057 164.331 15.9494 164.337 16.5819C164.31 17.0359 164.192 17.3184 163.957 17.8299L163.457 18.2805Z" fill="#BA7E3B"/>
<path d="M165.012 15.7177C164.579 15.2512 164.408 14.9578 164.278 14.5229C164.088 13.6486 164.242 13.2058 164.641 12.4277C165.057 12.9254 165.216 13.2381 165.394 13.8453C165.492 14.2895 165.457 14.593 165.37 15.1489L165.012 15.7177Z" fill="#BA7E3B"/>
<path d="M166.001 12.9886C165.43 12.7046 165.166 12.4901 164.889 12.1293C164.4 11.3783 164.387 10.9098 164.482 10.042C165.049 10.361 165.309 10.5979 165.692 11.103C165.942 11.4839 166.017 11.7803 166.134 12.3307L166.001 12.9886Z" fill="#BA7E3B"/>
<path d="M165.999 10.3861C165.397 10.1736 165.109 9.99267 164.789 9.66813C164.212 8.98205 164.141 8.51873 164.13 7.64575C164.732 7.89355 165.018 8.09721 165.46 8.55207C165.755 8.89989 165.866 9.18495 166.05 9.71711L165.999 10.3861Z" fill="#BA7E3B"/>
<path d="M165.502 7.5535C164.864 7.51918 164.536 7.42684 164.138 7.20546C163.388 6.71002 163.188 6.28562 162.928 5.45166C163.576 5.51988 163.909 5.63452 164.463 5.94626C164.845 6.19684 165.032 6.43906 165.36 6.89774L165.502 7.5535Z" fill="#BA7E3B"/>
<path d="M164.368 4.94884C163.738 5.0531 163.397 5.0338 162.96 4.90378C162.12 4.582 161.832 4.21094 161.396 3.45302C162.043 3.37972 162.393 3.41974 163.002 3.60446C163.43 3.76656 163.666 3.96252 164.086 4.3395L164.368 4.94884Z" fill="#BA7E3B"/>
<path d="M162.528 2.48955C161.89 2.51385 161.554 2.45197 161.137 2.26807C160.344 1.84341 160.106 1.43917 159.77 0.632568C160.421 0.64113 160.763 0.724778 161.344 0.984428C161.757 1.17922 161.997 1.37026 162.325 1.84963C162.438 2.03205 162.474 2.18953 162.528 2.48955Z" fill="#BA7E3B"/>
<path d="M160.985 20.4046C161.492 20.0184 161.802 19.8764 162.249 19.7868C163.143 19.6787 163.573 19.8718 164.316 20.3372C163.779 20.7042 163.452 20.8322 162.827 20.9534C162.154 21.0474 161.832 20.9884 161.522 20.8106C161.273 20.6544 161.153 20.5656 160.985 20.4046Z" fill="#BA7E3B"/>
<path d="M163.401 18.6045C163.908 18.2182 164.217 18.0763 164.665 17.9868C165.559 17.8787 165.989 18.0717 166.732 18.5372C166.195 18.9041 165.867 19.0322 165.243 19.1534C164.57 19.2473 164.247 19.1884 163.938 19.0106C163.689 18.8543 163.568 18.7654 163.401 18.6045Z" fill="#BA7E3B"/>
<path d="M165.046 16.3323C165.295 15.7475 165.493 15.472 165.838 15.1742C166.561 14.6413 167.03 14.598 167.908 14.6374C167.624 15.22 167.403 15.4925 166.92 15.9047C166.382 16.3166 166.072 16.424 165.715 16.4213C165.421 16.408 165.272 16.3899 165.046 16.3323Z" fill="#BA7E3B"/>
<path d="M166.059 13.5457C166.216 12.9304 166.371 12.6283 166.667 12.2824C167.301 11.6475 167.758 11.5344 168.632 11.4421C168.44 12.0606 168.262 12.363 167.847 12.8428C167.378 13.3304 167.088 13.4829 166.734 13.5336C166.441 13.5645 166.291 13.5688 166.059 13.5457Z" fill="#BA7E3B"/>
<path d="M166.269 10.8009C166.173 10.1733 166.197 9.83536 166.334 9.40236C166.669 8.57222 167.046 8.29098 167.814 7.86792C167.88 8.51208 167.835 8.8593 167.641 9.46168C167.4 10.0923 167.192 10.345 166.886 10.5286C166.628 10.6705 166.492 10.7325 166.269 10.8009Z" fill="#BA7E3B"/>
<path d="M165.977 8.00356C165.747 7.41124 165.697 7.07606 165.737 6.62398C165.885 5.74166 166.192 5.38642 166.852 4.80908C167.054 5.4243 167.086 5.77302 167.026 6.40276C166.927 7.0701 166.779 7.36128 166.521 7.60584C166.299 7.79952 166.18 7.88918 165.977 8.00356Z" fill="#BA7E3B"/>
<path d="M165.002 5.33301C164.608 4.83301 164.462 4.52677 164.368 4.08279C164.25 3.19601 164.44 2.76709 164.901 2.02393C165.276 2.55367 165.408 2.87821 165.536 3.49777C165.637 4.16479 165.581 4.48617 165.405 4.79509C165.25 5.04445 165.162 5.16491 165.002 5.33301Z" fill="#BA7E3B"/>
<path d="M163.701 3.50232C163.25 3.05322 163.067 2.7667 162.92 2.3373C162.695 1.47111 162.832 1.02253 163.199 0.229492C163.636 0.710428 163.806 1.01674 164.009 1.6164C164.19 2.26642 164.173 2.59218 164.036 2.91996C163.913 3.18604 163.84 3.31622 163.701 3.50232Z" fill="#BA7E3B"/>
<path d="M145.732 20C145.858 19.3774 145.849 19.0387 145.732 18.6C145.436 17.7555 145.072 17.4575 144.323 17C144.229 17.6405 144.258 17.9894 144.424 18.6C144.573 19.0299 144.763 19.2705 145.129 19.7L145.732 20Z" fill="#BA7E3B"/>
<path d="M143.422 18.2805C143.712 17.7145 143.795 17.386 143.802 16.9323C143.745 16.0396 143.476 15.6551 142.879 15.0142C142.614 15.6057 142.548 15.9494 142.542 16.5819C142.569 17.0359 142.686 17.3184 142.922 17.8299L143.422 18.2805Z" fill="#BA7E3B"/>
<path d="M141.867 15.7177C142.3 15.2512 142.471 14.9578 142.601 14.5229C142.791 13.6486 142.637 13.2058 142.238 12.4277C141.821 12.9254 141.663 13.2381 141.485 13.8453C141.386 14.2895 141.422 14.593 141.509 15.1489L141.867 15.7177Z" fill="#BA7E3B"/>
<path d="M140.877 12.9886C141.449 12.7046 141.713 12.4901 141.99 12.1293C142.479 11.3783 142.492 10.9098 142.396 10.042C141.829 10.361 141.57 10.5979 141.187 11.103C140.937 11.4839 140.862 11.7803 140.745 12.3307L140.877 12.9886Z" fill="#BA7E3B"/>
<path d="M140.879 10.3861C141.481 10.1736 141.77 9.99267 142.089 9.66813C142.667 8.98205 142.737 8.51873 142.749 7.64575C142.147 7.89355 141.86 8.09721 141.418 8.55207C141.123 8.89989 141.012 9.18495 140.829 9.71711L140.879 10.3861Z" fill="#BA7E3B"/>
<path d="M141.376 7.5535C142.014 7.51918 142.342 7.42684 142.741 7.20546C143.49 6.71002 143.69 6.28562 143.95 5.45166C143.302 5.51988 142.969 5.63452 142.416 5.94626C142.034 6.19684 141.846 6.43906 141.518 6.89774L141.376 7.5535Z" fill="#BA7E3B"/>
<path d="M142.51 4.94884C143.141 5.0531 143.481 5.0338 143.919 4.90378C144.759 4.582 145.047 4.21094 145.483 3.45302C144.835 3.37972 144.485 3.41974 143.876 3.60446C143.449 3.76656 143.213 3.96252 142.793 4.3395L142.51 4.94884Z" fill="#BA7E3B"/>
<path d="M144.351 2.48955C144.989 2.51385 145.324 2.45197 145.742 2.26807C146.534 1.84341 146.773 1.43917 147.109 0.632568C146.458 0.64113 146.115 0.724778 145.535 0.984428C145.122 1.17922 144.881 1.37026 144.553 1.84963C144.44 2.03205 144.405 2.18953 144.351 2.48955Z" fill="#BA7E3B"/>
<path d="M145.894 20.4046C145.387 20.0184 145.077 19.8764 144.629 19.7868C143.736 19.6787 143.306 19.8718 142.562 20.3372C143.099 20.7042 143.427 20.8322 144.052 20.9534C144.724 21.0474 145.047 20.9884 145.356 20.8106C145.606 20.6544 145.726 20.5656 145.894 20.4046Z" fill="#BA7E3B"/>
<path d="M143.478 18.6045C142.971 18.2182 142.661 18.0763 142.214 17.9868C141.32 17.8787 140.89 18.0717 140.147 18.5372C140.684 18.9041 141.011 19.0322 141.636 19.1534C142.309 19.2473 142.631 19.1884 142.941 19.0106C143.19 18.8543 143.31 18.7654 143.478 18.6045Z" fill="#BA7E3B"/>
<path d="M141.833 16.3323C141.584 15.7475 141.386 15.472 141.041 15.1742C140.318 14.6413 139.848 14.598 138.97 14.6374C139.254 15.22 139.476 15.4925 139.959 15.9047C140.496 16.3166 140.806 16.424 141.164 16.4213C141.458 16.408 141.607 16.3899 141.833 16.3323Z" fill="#BA7E3B"/>
<path d="M140.819 13.5457C140.662 12.9304 140.508 12.6283 140.212 12.2824C139.578 11.6475 139.12 11.5344 138.246 11.4421C138.439 12.0606 138.616 12.363 139.031 12.8428C139.5 13.3304 139.791 13.4829 140.144 13.5336C140.437 13.5645 140.587 13.5688 140.819 13.5457Z" fill="#BA7E3B"/>
<path d="M140.609 10.8009C140.706 10.1733 140.682 9.83536 140.545 9.40236C140.21 8.57222 139.832 8.29098 139.064 7.86792C138.999 8.51208 139.044 8.8593 139.238 9.46168C139.479 10.0923 139.686 10.345 139.992 10.5286C140.25 10.6705 140.387 10.7325 140.609 10.8009Z" fill="#BA7E3B"/>
<path d="M140.902 8.00356C141.132 7.41124 141.182 7.07606 141.142 6.62398C140.994 5.74166 140.686 5.38642 140.027 4.80908C139.824 5.4243 139.793 5.77302 139.852 6.40276C139.951 7.0701 140.099 7.36128 140.358 7.60584C140.58 7.79952 140.699 7.88918 140.902 8.00356Z" fill="#BA7E3B"/>
<path d="M141.877 5.33301C142.271 4.83301 142.417 4.52677 142.511 4.08279C142.629 3.19601 142.439 2.76709 141.977 2.02393C141.603 2.55367 141.471 2.87821 141.343 3.49777C141.241 4.16479 141.298 4.48617 141.474 4.79509C141.628 5.04445 141.717 5.16491 141.877 5.33301Z" fill="#BA7E3B"/>
<path d="M143.177 3.50232C143.629 3.05322 143.811 2.7667 143.959 2.3373C144.183 1.47111 144.047 1.02253 143.679 0.229492C143.243 0.710428 143.072 1.01674 142.87 1.6164C142.688 2.26642 142.705 2.59218 142.842 2.91996C142.966 3.18604 143.039 3.31622 143.177 3.50232Z" fill="#BA7E3B"/>
</g>
<defs>
<clipPath id="clip0">
<rect width="30" height="21" fill="white" transform="translate(0.996826 1)"/>
</clipPath>
<clipPath id="clip1">
<rect width="31" height="22" fill="white" transform="translate(45.9968)"/>
</clipPath>
<clipPath id="clip2">
<rect width="31" height="22" fill="white" transform="translate(91.9968)"/>
</clipPath>
<clipPath id="clip3">
<rect width="31" height="22" fill="white" transform="translate(137.997)"/>
</clipPath>
</defs>
</svg>
